NotoSansDisplay-CondensedSemiBold.ufo
<glyph name="comma" format="2">
  <advance width="251"/>
  <unicode hex="002C"/>
  <outline>
    <contour>
      <point x="200" y="133" type="line"/>
      <point x="70" y="133" type="line"/>
      <point x="66" y="60"/>
      <point x="48" y="-58"/>
      <point x="32" y="-136" type="curve"/>
      <point x="139" y="-136" type="line"/>
      <point x="168" y="-63"/>
      <point x="189" y="22"/>
      <point x="205" y="122" type="curve"/>
    </contour>
  </outline>
</glyph>
<glyph name="tbar" format="2">
  <advance width="317"/>
  <unicode hex="0167"/>
  <anchor x="186" y="0" name="bottom"/>
  <anchor x="137" y="662" name="top"/>
  <anchor x="137" y="274" name="center"/>
  <anchor x="289" y="662" name="topright"/>
  <outline>
    <contour>
      <point x="15" y="241" type="line"/>
      <point x="286" y="241" type="line"/>
      <point x="286" y="334" type="line"/>
      <point x="15" y="334" type="line"/>
    </contour>
    <component base="t"/>
  </outline>
</glyph>
<glyph name="uni018E" format="2">
  <advance width="416"/>
  <unicode hex="018E"/>
  <anchor x="208" y="0" name="bottom"/>
  <anchor x="208" y="714" name="top"/>
  <outline>
    <contour>
      <point x="355" y="714" type="line"/>
      <point x="40" y="714" type="line"/>
      <point x="40" y="597" type="line"/>
      <point x="217" y="597" type="line"/>
      <point x="217" y="429" type="line"/>
      <point x="53" y="429" type="line"/>
      <point x="53" y="312" type="line"/>
      <point x="217" y="312" type="line"/>
      <point x="217" y="119" type="line"/>
      <point x="40" y="119" type="line"/>
      <point x="40" y="0" type="line"/>
      <point x="355" y="0" type="line"/>
    </contour>
  </outline>
</glyph>
<glyph name="uni0191" format="2">
  <advance width="522"/>
  <unicode hex="0191"/>
  <anchor x="136" y="0" name="bottom"/>
  <anchor x="337" y="714" name="top"/>
  <anchor x="521" y="714" name="topright"/>
  <outline>
    <contour>
      <point x="136" y="-15" type="curve" smooth="yes"/>
      <point x="244" y="-15"/>
      <point x="316" y="60"/>
      <point x="316" y="180" type="curve" smooth="yes"/>
      <point x="316" y="313" type="line"/>
      <point x="479" y="313" type="line"/>
      <point x="479" y="430" type="line"/>
      <point x="316" y="430" type="line"/>
      <point x="316" y="597" type="line"/>
      <point x="491" y="597" type="line"/>
      <point x="491" y="714" type="line"/>
      <point x="178" y="714" type="line"/>
      <point x="178" y="180" type="line" smooth="yes"/>
      <point x="178" y="127"/>
      <point x="160" y="95"/>
      <point x="128" y="95" type="curve" smooth="yes"/>
      <point x="101" y="95"/>
      <point x="83" y="114"/>
      <point x="83" y="147" type="curve" smooth="yes"/>
      <point x="83" y="161"/>
      <point x="85" y="176"/>
      <point x="90" y="189" type="curve"/>
      <point x="-10" y="224" type="line"/>
      <point x="-19" y="204"/>
      <point x="-27" y="172"/>
      <point x="-27" y="140" type="curve" smooth="yes"/>
      <point x="-27" y="43"/>
      <point x="32" y="-15"/>
    </contour>
  </outline>
</glyph>
<glyph name="florin" format="2">
  <advance width="404"/>
  <unicode hex="0192"/>
  <anchor x="151" y="-2" name="bottom"/>
  <anchor x="301" y="765" name="top"/>
  <anchor x="418" y="765" name="topright"/>
  <outline>
    <contour>
      <point x="146" y="-15" type="curve" smooth="yes"/>
      <point x="251" y="-15"/>
      <point x="310" y="52"/>
      <point x="310" y="153" type="curve" smooth="yes"/>
      <point x="310" y="439" type="line"/>
      <point x="395" y="439" type="line"/>
      <point x="395" y="547" type="line"/>
      <point x="310" y="547" type="line"/>
      <point x="310" y="573" type="line"/>
      <point x="310" y="633"/>
      <point x="320" y="655"/>
      <point x="346" y="655" type="curve"/>
      <point x="363" y="655"/>
      <point x="379" y="651"/>
      <point x="396" y="645" type="curve"/>
      <point x="424" y="743" type="line"/>
      <point x="383" y="759"/>
      <point x="356" y="765"/>
      <point x="318" y="765" type="curve" smooth="yes"/>
      <point x="219" y="765"/>
      <point x="179" y="702"/>
      <point x="179" y="564" type="curve" smooth="yes"/>
      <point x="179" y="547" type="line"/>
      <point x="118" y="509" type="line"/>
      <point x="118" y="439" type="line"/>
      <point x="179" y="439" type="line"/>
      <point x="179" y="153" type="line" smooth="yes"/>
      <point x="179" y="116"/>
      <point x="164" y="95"/>
      <point x="138" y="95" type="curve" smooth="yes"/>
      <point x="117" y="95"/>
      <point x="101" y="108"/>
      <point x="101" y="140" type="curve" smooth="yes"/>
      <point x="101" y="156"/>
      <point x="104" y="168"/>
      <point x="107" y="180" type="curve"/>
      <point x="3" y="206" type="line"/>
      <point x="-3" y="190"/>
      <point x="-9" y="159"/>
      <point x="-9" y="136" type="curve" smooth="yes"/>
      <point x="-9" y="38"/>
      <point x="48" y="-15"/>
    </contour>
  </outline>
</glyph>
<glyph name="uni023C" format="2">
  <advance width="399"/>
  <unicode hex="023C"/>
  <anchor x="234" y="-208" name="bottom"/>
  <anchor x="227" y="760" name="top"/>
  <anchor x="371" y="547" name="topright"/>
  <outline>
    <contour>
      <point x="350" y="760" type="line"/>
      <point x="298" y="760" type="line"/>
      <point x="151" y="-208" type="line"/>
      <point x="204" y="-208" type="line"/>
    </contour>
    <component base="c"/>
  </outline>
</glyph>
<glyph name="uni023E" format="2">
  <advance width="429"/>
  <unicode hex="023E"/>
  <anchor x="211" y="-75" name="bottom"/>
  <anchor x="211" y="760" name="top"/>
  <anchor x="211" y="357" name="center"/>
  <anchor x="401" y="714" name="topright"/>
  <outline>
    <contour>
      <point x="383" y="760" type="line"/>
      <point x="327" y="760" type="line"/>
      <point x="65" y="-75" type="line"/>
      <point x="121" y="-75" type="line"/>
    </contour>
    <component base="T"/>
  </outline>
</glyph>
<glyph name="uni024C" format="2">
  <advance width="501"/>
  <unicode hex="024C"/>
  <anchor x="261" y="0" name="bottom"/>
  <anchor x="256" y="714" name="top"/>
  <anchor x="482" y="714" name="topright"/>
  <outline>
    <contour>
      <point x="171" y="280" type="line"/>
      <point x="171" y="388" type="line"/>
      <point x="5" y="388" type="line"/>
      <point x="5" y="280" type="line"/>
    </contour>
    <component base="R"/>
  </outline>
</glyph>
<glyph name="uni024E" format="2">
  <advance width="467"/>
  <unicode hex="024E"/>
  <anchor x="234" y="0" name="bottom"/>
  <anchor x="234" y="714" name="top"/>
  <anchor x="448" y="714" name="topright"/>
  <outline>
    <contour>
      <point x="460" y="592" type="line"/>
      <point x="5" y="592" type="line"/>
      <point x="5" y="516" type="line"/>
      <point x="460" y="516" type="line"/>
    </contour>
    <component base="Y"/>
  </outline>
</glyph>
<glyph name="uni0289" format="2">
  <advance width="489"/>
  <unicode hex="0289"/>
  <anchor x="240" y="0" name="bottom"/>
  <anchor x="245" y="547" name="top"/>
  <anchor x="457" y="547" name="topright"/>
  <outline>
    <contour>
      <point x="1" y="244" type="line"/>
      <point x="487" y="244" type="line"/>
      <point x="487" y="339" type="line"/>
      <point x="1" y="339" type="line"/>
    </contour>
    <component base="u"/>
  </outline>
</glyph>
<glyph name="uni02EF" format="2">
  <advance width="327"/>
  <unicode hex="02EF"/>
  <outline>
    <contour>
      <point x="146" y="-231" type="line"/>
      <point x="182" y="-231" type="line"/>
      <point x="287" y="-23" type="line"/>
      <point x="231" y="-23" type="line"/>
      <point x="164" y="-157" type="line"/>
      <point x="97" y="-23" type="line"/>
      <point x="40" y="-23" type="line"/>
    </contour>
  </outline>
</glyph>
<glyph name="uni02FE" format="2">
  <advance width="343"/>
  <unicode hex="02FE"/>
  <outline>
    <contour>
      <point x="303" y="-202" type="line"/>
      <point x="303" y="-148" type="line"/>
      <point x="93" y="-148" type="line"/>
      <point x="93" y="-40" type="line"/>
      <point x="40" y="-40" type="line"/>
      <point x="40" y="-202" type="line"/>
    </contour>
  </outline>
</glyph>
<glyph name="strokelongoverlaycomb" format="2">
  <unicode hex="0336"/>
  <anchor x="0" y="274" name="_center"/>
  <outline>
    <contour>
      <point x="-276" y="224" type="line"/>
      <point x="276" y="224" type="line"/>
      <point x="276" y="323" type="line"/>
      <point x="-276" y="323" type="line"/>
    </contour>
  </outline>
</glyph>
<glyph name="gbridgeabovecomb" format="2">
  <unicode hex="0346"/>
  <anchor x="0" y="546" name="_top"/>
  <anchor x="2" y="757" name="top"/>
  <outline>
    <contour>
      <point x="-133" y="757" type="line"/>
      <point x="-133" y="596" type="line"/>
      <point x="-81" y="596" type="line"/>
      <point x="-81" y="703" type="line"/>
      <point x="80" y="703" type="line"/>
      <point x="80" y="596" type="line"/>
      <point x="133" y="596" type="line"/>
      <point x="133" y="757" type="line"/>
    </contour>
  </outline>
</glyph>
<glyph name="arrowdoublerightbelowcomb" format="2">
  <unicode hex="0362"/>
  <anchor x="0" y="24" name="_bottom"/>
  <anchor x="2" y="-227" name="bottom"/>
  <outline>
    <contour>
      <point x="-299" y="-94" type="line"/>
      <point x="-299" y="-160" type="line"/>
      <point x="185" y="-160" type="line"/>
      <point x="185" y="-227" type="line"/>
      <point x="299" y="-127" type="line"/>
      <point x="185" y="-26" type="line"/>
      <point x="185" y="-94" type="line"/>
    </contour>
  </outline>
</glyph>
<glyph name="heta" format="2">
  <advance width="298"/>
  <unicode hex="0371"/>
  <anchor x="150" y="0" name="bottom"/>
  <anchor x="150" y="547" name="top"/>
  <outline>
    <contour>
      <point x="184" y="547" type="line"/>
      <point x="53" y="547" type="line"/>
      <point x="53" y="0" type="line"/>
      <point x="184" y="0" type="line"/>
      <point x="184" y="226" type="line"/>
      <point x="281" y="226" type="line"/>
      <point x="281" y="337" type="line"/>
      <point x="184" y="337" type="line"/>
    </contour>
  </outline>
</glyph>
<glyph name="uni0374" format="2">
  <advance width="194"/>
  <unicode hex="0374"/>
  <outline>
    <contour>
      <point x="22" y="566" type="curve"/>
      <point x="22" y="554" type="line"/>
      <point x="73" y="554" type="line"/>
      <point x="112" y="590"/>
      <point x="149" y="653"/>
      <point x="173" y="704" type="curve"/>
      <point x="173" y="714" type="line"/>
      <point x="78" y="714" type="line"/>
      <point x="65" y="668"/>
      <point x="45" y="611"/>
    </contour>
  </outline>
</glyph>
<glyph name="uni0375" format="2">
  <advance width="194"/>
  <unicode hex="0375"/>
  <outline>
    <contour>
      <point x="173" y="-72" type="curve"/>
      <point x="173" y="-60" type="line"/>
      <point x="122" y="-60" type="line"/>
      <point x="84" y="-96"/>
      <point x="46" y="-159"/>
      <point x="22" y="-210" type="curve"/>
      <point x="22" y="-220" type="line"/>
      <point x="117" y="-220" type="line"/>
      <point x="130" y="-174"/>
      <point x="150" y="-117"/>
    </contour>
  </outline>
</glyph>
<glyph name="tonos" format="2">
  <advance width="438"/>
  <unicode hex="0384"/>
  <anchor x="216" y="547" name="_top"/>
  <outline>
    <contour>
      <point x="166" y="620" type="curve"/>
      <point x="166" y="606" type="line"/>
      <point x="246" y="606" type="line"/>
      <point x="273" y="655"/>
      <point x="297" y="711"/>
      <point x="316" y="759" type="curve"/>
      <point x="316" y="771" type="line"/>
      <point x="197" y="771" type="line"/>
      <point x="194" y="744"/>
      <point x="174" y="648"/>
    </contour>
  </outline>
</glyph>
<glyph name="dieresistonos" format="2">
  <advance width="445"/>
  <unicode hex="0385"/>
  <anchor x="223" y="547" name="_top"/>
  <outline>
    <contour>
      <point x="303" y="809" type="curve"/>
      <point x="303" y="819" type="line"/>
      <point x="197" y="819" type="line"/>
      <point x="197" y="788"/>
      <point x="190" y="740"/>
      <point x="180" y="688" type="curve"/>
      <point x="180" y="675" type="line"/>
      <point x="243" y="675" type="line"/>
      <point x="270" y="724"/>
      <point x="291" y="773"/>
    </contour>
    <contour>
      <point x="106" y="740" type="curve" smooth="yes"/>
      <point x="72" y="740"/>
      <point x="49" y="716"/>
      <point x="49" y="673" type="curve" smooth="yes"/>
      <point x="49" y="631"/>
      <point x="72" y="606"/>
      <point x="106" y="606" type="curve" smooth="yes"/>
      <point x="141" y="606"/>
      <point x="163" y="632"/>
      <point x="163" y="673" type="curve" smooth="yes"/>
      <point x="163" y="715"/>
      <point x="141" y="740"/>
    </contour>
    <contour>
      <point x="338" y="742" type="curve" smooth="yes"/>
      <point x="304" y="742"/>
      <point x="281" y="718"/>
      <point x="281" y="674" type="curve" smooth="yes"/>
      <point x="281" y="633"/>
      <point x="304" y="608"/>
      <point x="338" y="608" type="curve" smooth="yes"/>
      <point x="373" y="608"/>
      <point x="396" y="634"/>
      <point x="396" y="673" type="curve" smooth="yes"/>
      <point x="396" y="717"/>
      <point x="373" y="742"/>
    </contour>
  </outline>
</glyph>
<glyph name="Delta" format="2">
  <advance width="515"/>
  <unicode hex="0394"/>
  <anchor x="262" y="0" name="bottom"/>
  <anchor x="262" y="714" name="top"/>
  <outline>
    <contour>
      <point x="347" y="714" type="line"/>
      <point x="168" y="714" type="line"/>
      <point x="12" y="83" type="line"/>
      <point x="12" y="0" type="line"/>
      <point x="504" y="0" type="line"/>
      <point x="504" y="81" type="line"/>
    </contour>
    <contour>
      <point x="349" y="119" type="line"/>
      <point x="165" y="119" type="line"/>
      <point x="242" y="494" type="line" smooth="yes"/>
      <point x="248" y="523"/>
      <point x="254" y="558"/>
      <point x="257" y="592" type="curve"/>
      <point x="260" y="561"/>
      <point x="267" y="523"/>
      <point x="273" y="494" type="curve" smooth="yes"/>
    </contour>
  </outline>
</glyph>
<glyph name="Theta" format="2">
  <advance width="593"/>
  <unicode hex="0398"/>
  <anchor x="290" y="0" name="bottom"/>
  <anchor x="290" y="725" name="top"/>
  <anchor x="290" y="357" name="center"/>
  <anchor x="560" y="725" name="topright"/>
  <outline>
    <contour>
      <point x="367" y="418" type="line"/>
      <point x="220" y="418" type="line"/>
      <point x="220" y="308" type="line"/>
      <point x="367" y="308" type="line"/>
    </contour>
    <component base="O"/>
  </outline>
</glyph>
<glyph name="Lambda" format="2">
  <advance width="506"/>
  <unicode hex="039B"/>
  <anchor x="253" y="0" name="bottom"/>
  <anchor x="253" y="714" name="top"/>
  <outline>
    <contour>
      <point x="332" y="714" type="line"/>
      <point x="173" y="714" type="line"/>
      <point x="0" y="0" type="line"/>
      <point x="145" y="0" type="line"/>
      <point x="231" y="414" type="line" smooth="yes"/>
      <point x="241" y="462"/>
      <point x="248" y="509"/>
      <point x="253" y="556" type="curve"/>
      <point x="254" y="526"/>
      <point x="261" y="478"/>
      <point x="275" y="412" type="curve" smooth="yes"/>
      <point x="361" y="0" type="line"/>
      <point x="506" y="0" type="line"/>
    </contour>
  </outline>
</glyph>
<glyph name="Xi" format="2">
  <advance width="425"/>
  <unicode hex="039E"/>
  <anchor x="213" y="0" name="bottom"/>
  <anchor x="213" y="714" name="top"/>
  <outline>
    <contour>
      <point x="32" y="0" type="line"/>
      <point x="394" y="0" type="line"/>
      <point x="394" y="119" type="line"/>
      <point x="32" y="119" type="line"/>
    </contour>
    <contour>
      <point x="72" y="315" type="line"/>
      <point x="354" y="315" type="line"/>
      <point x="354" y="433" type="line"/>
      <point x="72" y="433" type="line"/>
    </contour>
    <contour>
      <point x="45" y="597" type="line"/>
      <point x="380" y="597" type="line"/>
      <point x="380" y="714" type="line"/>
      <point x="45" y="714" type="line"/>
    </contour>
  </outline>
</glyph>
<glyph name="Pi" format="2">
  <advance width="555"/>
  <unicode hex="03A0"/>
  <anchor x="278" y="0" name="bottom"/>
  <anchor x="278" y="714" name="top"/>
  <outline>
    <contour>
      <point x="61" y="0" type="line"/>
      <point x="199" y="0" type="line"/>
      <point x="199" y="595" type="line"/>
      <point x="356" y="595" type="line"/>
      <point x="356" y="0" type="line"/>
      <point x="494" y="0" type="line"/>
      <point x="494" y="714" type="line"/>
      <point x="61" y="714" type="line"/>
    </contour>
  </outline>
</glyph>
<glyph name="Sigma" format="2">
  <advance width="442"/>
  <unicode hex="03A3"/>
  <anchor x="221" y="0" name="bottom"/>
  <anchor x="221" y="714" name="top"/>
  <outline>
    <contour>
      <point x="28" y="0" type="line"/>
      <point x="411" y="0" type="line"/>
      <point x="411" y="119" type="line"/>
      <point x="263" y="119" type="line" smooth="yes"/>
      <point x="237" y="119"/>
      <point x="210" y="117"/>
      <point x="179" y="114" type="curve"/>
      <point x="332" y="375" type="line"/>
      <point x="193" y="601" type="line"/>
      <point x="211" y="598"/>
      <point x="238" y="597"/>
      <point x="272" y="597" type="curve" smooth="yes"/>
      <point x="393" y="597" type="line"/>
      <point x="393" y="714" type="line"/>
      <point x="37" y="714" type="line"/>
      <point x="37" y="606" type="line"/>
      <point x="180" y="374" type="line"/>
      <point x="28" y="112" type="line"/>
    </contour>
  </outline>
</glyph>
<glyph name="Psi" format="2">
  <advance width="706"/>
  <unicode hex="03A8"/>
  <anchor x="353" y="0" name="bottom"/>
  <anchor x="353" y="714" name="top"/>
  <outline>
    <contour>
      <point x="655" y="476" type="curve" smooth="yes"/>
      <point x="655" y="714" type="line"/>
      <point x="518" y="714" type="line"/>
      <point x="518" y="461" type="line" smooth="yes"/>
      <point x="518" y="361"/>
      <point x="489" y="320"/>
      <point x="420" y="320" type="curve"/>
      <point x="420" y="714" type="line"/>
      <point x="287" y="714" type="line"/>
      <point x="287" y="320" type="line"/>
      <point x="210" y="320"/>
      <point x="190" y="367"/>
      <point x="190" y="463" type="curve" smooth="yes"/>
      <point x="190" y="714" type="line"/>
      <point x="52" y="714" type="line"/>
      <point x="52" y="467" type="line" smooth="yes"/>
      <point x="52" y="286"/>
      <point x="119" y="201"/>
      <point x="287" y="201" type="curve"/>
      <point x="287" y="0" type="line"/>
      <point x="420" y="0" type="line"/>
      <point x="420" y="201" type="line"/>
      <point x="585" y="201"/>
      <point x="655" y="291"/>
    </contour>
  </outline>
</glyph>
<glyph name="Omega" format="2">
  <advance width="583"/>
  <unicode hex="03A9"/>
  <anchor x="292" y="0" name="bottom"/>
  <anchor x="292" y="725" name="top"/>
  <anchor x="20" y="714" name="topleft"/>
  <outline>
    <contour>
      <point x="293" y="606" type="curve" smooth="yes"/>
      <point x="366" y="606"/>
      <point x="402" y="535"/>
      <point x="402" y="397" type="curve" smooth="yes"/>
      <point x="402" y="270"/>
      <point x="381" y="184"/>
      <point x="323" y="128" type="curve"/>
      <point x="323" y="0" type="line"/>
      <point x="562" y="0" type="line"/>
      <point x="562" y="119" type="line"/>
      <point x="428" y="119" type="line"/>
      <point x="499" y="175"/>
      <point x="540" y="274"/>
      <point x="540" y="415" type="curve" smooth="yes"/>
      <point x="540" y="619"/>
      <point x="443" y="725"/>
      <point x="293" y="725" type="curve" smooth="yes"/>
      <point x="134" y="725"/>
      <point x="43" y="618"/>
      <point x="43" y="415" type="curve" smooth="yes"/>
      <point x="43" y="275"/>
      <point x="85" y="173"/>
      <point x="154" y="119" type="curve"/>
      <point x="22" y="119" type="line"/>
      <point x="22" y="0" type="line"/>
      <point x="260" y="0" type="line"/>
      <point x="260" y="128" type="line"/>
      <point x="205" y="182"/>
      <point x="182" y="269"/>
      <point x="182" y="396" type="curve" smooth="yes"/>
      <point x="182" y="537"/>
      <point x="218" y="606"/>
    </contour>
  </outline>
</glyph>
<glyph name="beta" format="2">
  <advance width="500"/>
  <unicode hex="03B2"/>
  <anchor x="304" y="0" name="bottom"/>
  <anchor x="252" y="765" name="top"/>
  <anchor x="430" y="765" name="topright"/>
  <outline>
    <contour>
      <point x="252" y="765" type="curve" smooth="yes"/>
      <point x="127" y="765"/>
      <point x="53" y="685"/>
      <point x="53" y="545" type="curve" smooth="yes"/>
      <point x="53" y="-240" type="line"/>
      <point x="184" y="-240" type="line"/>
      <point x="184" y="21" type="line"/>
      <point x="212" y="2"/>
      <point x="247" y="-10"/>
      <point x="295" y="-10" type="curve" smooth="yes"/>
      <point x="403" y="-10"/>
      <point x="468" y="75"/>
      <point x="468" y="211" type="curve" smooth="yes"/>
      <point x="468" y="324"/>
      <point x="428" y="387"/>
      <point x="337" y="401" type="curve"/>
      <point x="337" y="405" type="line"/>
      <point x="404" y="419"/>
      <point x="438" y="474"/>
      <point x="438" y="575" type="curve" smooth="yes"/>
      <point x="438" y="691"/>
      <point x="370" y="765"/>
    </contour>
    <contour>
      <point x="248" y="655" type="curve" smooth="yes"/>
      <point x="284" y="655"/>
      <point x="306" y="620"/>
      <point x="306" y="555" type="curve" smooth="yes"/>
      <point x="306" y="486"/>
      <point x="287" y="449"/>
      <point x="247" y="449" type="curve" smooth="yes"/>
      <point x="233" y="449" type="line"/>
      <point x="233" y="338" type="line"/>
      <point x="253" y="338" type="line" smooth="yes"/>
      <point x="306" y="338"/>
      <point x="335" y="296"/>
      <point x="335" y="223" type="curve" smooth="yes"/>
      <point x="335" y="143"/>
      <point x="308" y="104"/>
      <point x="257" y="104" type="curve" smooth="yes"/>
      <point x="234" y="104"/>
      <point x="201" y="117"/>
      <point x="184" y="134" type="curve"/>
      <point x="184" y="535" type="line" smooth="yes"/>
      <point x="184" y="614"/>
      <point x="205" y="655"/>
    </contour>
  </outline>
</glyph>
<glyph name="gamma" format="2">
  <advance width="440"/>
  <unicode hex="03B3"/>
  <anchor x="220" y="-240" name="bottom"/>
  <anchor x="220" y="547" name="top"/>
  <anchor x="430" y="547" name="topright"/>
  <outline>
    <contour>
      <point x="436" y="547" type="line"/>
      <point x="301" y="547" type="line"/>
      <point x="258" y="352" type="line" smooth="yes"/>
      <point x="243" y="282"/>
      <point x="230" y="222"/>
      <point x="224" y="170" type="curve"/>
      <point x="221" y="170" type="line"/>
      <point x="215" y="230"/>
      <point x="201" y="293"/>
      <point x="186" y="357" type="curve" smooth="yes"/>
      <point x="142" y="547" type="line"/>
      <point x="3" y="547" type="line"/>
      <point x="153" y="0" type="line"/>
      <point x="137" y="-65"/>
      <point x="119" y="-182"/>
      <point x="119" y="-240" type="curve"/>
      <point x="259" y="-240" type="line"/>
      <point x="259" y="-164"/>
      <point x="274" y="-61"/>
      <point x="294" y="16" type="curve" smooth="yes"/>
    </contour>
  </outline>
</glyph>
<glyph name="delta" format="2">
  <advance width="473"/>
  <unicode hex="03B4"/>
  <anchor x="236" y="0" name="bottom"/>
  <anchor x="236" y="766" name="top"/>
  <outline>
    <contour>
      <point x="262" y="766" type="curve" smooth="yes"/>
      <point x="151" y="766"/>
      <point x="83" y="709"/>
      <point x="83" y="607" type="curve" smooth="yes"/>
      <point x="83" y="545"/>
      <point x="116" y="493"/>
      <point x="174" y="445" type="curve"/>
      <point x="83" y="407"/>
      <point x="33" y="326"/>
      <point x="33" y="215" type="curve" smooth="yes"/>
      <point x="33" y="77"/>
      <point x="100" y="-10"/>
      <point x="233" y="-10" type="curve" smooth="yes"/>
      <point x="364" y="-10"/>
      <point x="439" y="84"/>
      <point x="439" y="222" type="curve" smooth="yes"/>
      <point x="439" y="348"/>
      <point x="394" y="425"/>
      <point x="298" y="500" type="curve" smooth="yes"/>
      <point x="229" y="555"/>
      <point x="212" y="578"/>
      <point x="212" y="611" type="curve" smooth="yes"/>
      <point x="212" y="640"/>
      <point x="231" y="656"/>
      <point x="267" y="656" type="curve" smooth="yes"/>
      <point x="301" y="656"/>
      <point x="342" y="642"/>
      <point x="389" y="611" type="curve"/>
      <point x="434" y="717" type="line"/>
      <point x="383" y="748"/>
      <point x="325" y="766"/>
    </contour>
    <contour>
      <point x="241" y="384" type="curve"/>
      <point x="285" y="343"/>
      <point x="306" y="292"/>
      <point x="306" y="225" type="curve" smooth="yes"/>
      <point x="306" y="144"/>
      <point x="279" y="100"/>
      <point x="234" y="100" type="curve" smooth="yes"/>
      <point x="190" y="100"/>
      <point x="166" y="148"/>
      <point x="166" y="222" type="curve" smooth="yes"/>
      <point x="166" y="297"/>
      <point x="195" y="363"/>
    </contour>
  </outline>
</glyph>
<glyph name="zeta" format="2">
  <advance width="389"/>
  <unicode hex="03B6"/>
  <anchor x="195" y="-186" name="bottom"/>
  <anchor x="195" y="760" name="top"/>
  <outline>
    <contour>
      <point x="370" y="-27" type="curve" smooth="yes"/>
      <point x="370" y="54"/>
      <point x="329" y="94"/>
      <point x="264" y="116" type="curve" smooth="yes"/>
      <point x="183" y="144"/>
      <point x="167" y="172"/>
      <point x="167" y="236" type="curve" smooth="yes"/>
      <point x="167" y="386"/>
      <point x="236" y="523"/>
      <point x="366" y="672" type="curve"/>
      <point x="366" y="760" type="line"/>
      <point x="53" y="760" type="line"/>
      <point x="53" y="650" type="line"/>
      <point x="160" y="650" type="line"/>
      <point x="187" y="650"/>
      <point x="210" y="653"/>
      <point x="231" y="659" type="curve"/>
      <point x="98" y="508"/>
      <point x="34" y="379"/>
      <point x="34" y="228" type="curve" smooth="yes"/>
      <point x="34" y="96"/>
      <point x="70" y="46"/>
      <point x="159" y="13" type="curve" smooth="yes"/>
      <point x="234" y="-15"/>
      <point x="242" y="-30"/>
      <point x="242" y="-58" type="curve" smooth="yes"/>
      <point x="242" y="-82"/>
      <point x="217" y="-142"/>
      <point x="187" y="-186" type="curve"/>
      <point x="319" y="-186" type="line"/>
      <point x="351" y="-133"/>
      <point x="370" y="-76"/>
    </contour>
  </outline>
</glyph>
<glyph name="theta" format="2">
  <advance width="487"/>
  <unicode hex="03B8"/>
  <anchor x="244" y="0" name="bottom"/>
  <anchor x="244" y="771" name="top"/>
  <anchor x="429" y="771" name="topright"/>
  <outline>
    <contour>
      <point x="453" y="381" type="curve" smooth="yes"/>
      <point x="453" y="645"/>
      <point x="383" y="771"/>
      <point x="243" y="771" type="curve" smooth="yes"/>
      <point x="102" y="771"/>
      <point x="34" y="643"/>
      <point x="34" y="381" type="curve" smooth="yes"/>
      <point x="34" y="115"/>
      <point x="102" y="-10"/>
      <point x="242" y="-10" type="curve" smooth="yes"/>
      <point x="383" y="-10"/>
      <point x="453" y="118"/>
    </contour>
    <contour>
      <point x="242" y="96" type="curve" smooth="yes"/>
      <point x="192" y="96"/>
      <point x="169" y="174"/>
      <point x="167" y="330" type="curve"/>
      <point x="319" y="330" type="line"/>
      <point x="317" y="173"/>
      <point x="293" y="96"/>
    </contour>
    <contour>
      <point x="244" y="665" type="curve" smooth="yes"/>
      <point x="293" y="665"/>
      <point x="316" y="591"/>
      <point x="321" y="436" type="curve"/>
      <point x="169" y="436" type="line"/>
      <point x="171" y="591"/>
      <point x="194" y="665"/>
    </contour>
  </outline>
</glyph>
<glyph name="lambda" format="2">
  <advance width="474"/>
  <unicode hex="03BB"/>
  <anchor x="237" y="0" name="bottom"/>
  <anchor x="237" y="767" name="top"/>
  <outline>
    <contour>
      <point x="4" y="0" type="line"/>
      <point x="140" y="0" type="line"/>
      <point x="212" y="280" type="line" smooth="yes"/>
      <point x="216" y="297"/>
      <point x="220" y="319"/>
      <point x="221" y="342" type="curve"/>
      <point x="225" y="342" type="line"/>
      <point x="228" y="315"/>
      <point x="230" y="289"/>
      <point x="236" y="265" type="curve" smooth="yes"/>
      <point x="264" y="145" type="line" smooth="yes"/>
      <point x="291" y="29"/>
      <point x="331" y="-10"/>
      <point x="412" y="-10" type="curve" smooth="yes"/>
      <point x="433" y="-10"/>
      <point x="453" y="-7"/>
      <point x="469" y="-2" type="curve"/>
      <point x="469" y="112" type="line"/>
      <point x="460" y="108"/>
      <point x="449" y="106"/>
      <point x="436" y="106" type="curve" smooth="yes"/>
      <point x="411" y="106"/>
      <point x="396" y="120"/>
      <point x="385" y="164" type="curve" smooth="yes"/>
      <point x="278" y="588" type="line" smooth="yes"/>
      <point x="244" y="723"/>
      <point x="195" y="767"/>
      <point x="108" y="767" type="curve" smooth="yes"/>
      <point x="85" y="767"/>
      <point x="66" y="765"/>
      <point x="49" y="760" type="curve"/>
      <point x="49" y="652" type="line"/>
      <point x="60" y="656"/>
      <point x="72" y="658"/>
      <point x="86" y="658" type="curve" smooth="yes"/>
      <point x="125" y="658"/>
      <point x="138" y="625"/>
      <point x="146" y="589" type="curve" smooth="yes"/>
      <point x="161" y="523" type="line"/>
    </contour>
  </outline>
</glyph>
<glyph name="nu" format="2">
  <advance width="455"/>
  <unicode hex="03BD"/>
  <anchor x="228" y="0" name="bottom"/>
  <anchor x="228" y="547" name="top"/>
  <outline>
    <contour>
      <point x="5" y="547" type="line"/>
      <point x="133" y="0" type="line"/>
      <point x="257" y="0" type="line"/>
      <point x="378" y="167"/>
      <point x="428" y="333"/>
      <point x="428" y="547" type="curve"/>
      <point x="296" y="547" type="line"/>
      <point x="296" y="391"/>
      <point x="277" y="260"/>
      <point x="220" y="139" type="curve"/>
      <point x="217" y="139" type="line"/>
      <point x="215" y="165"/>
      <point x="210" y="194"/>
      <point x="204" y="228" type="curve" smooth="yes"/>
      <point x="142" y="547" type="line"/>
    </contour>
  </outline>
</glyph>
<glyph name="xi" format="2">
  <advance width="389"/>
  <unicode hex="03BE"/>
  <anchor x="195" y="-186" name="bottom"/>
  <anchor x="202" y="760" name="top"/>
  <outline>
    <contour>
      <point x="34" y="206" type="curve" smooth="yes"/>
      <point x="34" y="105"/>
      <point x="73" y="41"/>
      <point x="169" y="10" type="curve" smooth="yes"/>
      <point x="224" y="-8"/>
      <point x="237" y="-26"/>
      <point x="237" y="-58" type="curve" smooth="yes"/>
      <point x="237" y="-82"/>
      <point x="212" y="-142"/>
      <point x="181" y="-186" type="curve"/>
      <point x="314" y="-186" type="line"/>
      <point x="346" y="-135"/>
      <point x="366" y="-79"/>
      <point x="366" y="-30" type="curve" smooth="yes"/>
      <point x="366" y="45"/>
      <point x="329" y="91"/>
      <point x="260" y="114" type="curve" smooth="yes"/>
      <point x="186" y="139"/>
      <point x="167" y="162"/>
      <point x="167" y="225" type="curve" smooth="yes"/>
      <point x="167" y="305"/>
      <point x="205" y="340"/>
      <point x="277" y="340" type="curve" smooth="yes"/>
      <point x="326" y="340" type="line"/>
      <point x="326" y="450" type="line"/>
      <point x="278" y="450" type="line" smooth="yes"/>
      <point x="214" y="450"/>
      <point x="186" y="476"/>
      <point x="186" y="538" type="curve" smooth="yes"/>
      <point x="186" y="610"/>
      <point x="230" y="651"/>
      <point x="307" y="651" type="curve" smooth="yes"/>
      <point x="350" y="651" type="line"/>
      <point x="350" y="760" type="line"/>
      <point x="44" y="760" type="line"/>
      <point x="44" y="650" type="line"/>
      <point x="79" y="650" type="line" smooth="yes"/>
      <point x="100" y="650"/>
      <point x="119" y="651"/>
      <point x="147" y="655" type="curve"/>
      <point x="96" y="640"/>
      <point x="56" y="589"/>
      <point x="56" y="528" type="curve" smooth="yes"/>
      <point x="56" y="456"/>
      <point x="85" y="415"/>
      <point x="145" y="400" type="curve"/>
      <point x="145" y="396" type="line"/>
      <point x="66" y="366"/>
      <point x="34" y="299"/>
    </contour>
  </outline>
</glyph>
<glyph name="pi" format="2">
  <advance width="553"/>
  <unicode hex="03C0"/>
  <anchor x="277" y="0" name="bottom"/>
  <anchor x="277" y="547" name="top"/>
  <outline>
    <contour>
      <point x="483" y="105" type="curve" smooth="yes"/>
      <point x="464" y="105"/>
      <point x="453" y="121"/>
      <point x="453" y="159" type="curve" smooth="yes"/>
      <point x="453" y="437" type="line"/>
      <point x="533" y="437" type="line"/>
      <point x="533" y="547" type="line"/>
      <point x="70" y="547" type="line"/>
      <point x="6" y="496" type="line"/>
      <point x="6" y="437" type="line"/>
      <point x="86" y="437" type="line"/>
      <point x="86" y="0" type="line"/>
      <point x="217" y="0" type="line"/>
      <point x="217" y="437" type="line"/>
      <point x="322" y="437" type="line"/>
      <point x="322" y="156" type="line" smooth="yes"/>
      <point x="322" y="45"/>
      <point x="359" y="-9"/>
      <point x="440" y="-9" type="curve" smooth="yes"/>
      <point x="473" y="-9"/>
      <point x="509" y="0"/>
      <point x="533" y="17" type="curve"/>
      <point x="533" y="118" type="line"/>
      <point x="518" y="110"/>
      <point x="498" y="105"/>
    </contour>
  </outline>
</glyph>
<glyph name="rho" format="2">
  <advance width="486"/>
  <unicode hex="03C1"/>
  <anchor x="243" y="-240" name="bottom"/>
  <anchor x="243" y="547" name="top"/>
  <outline>
    <contour>
      <point x="452" y="273" type="curve" smooth="yes"/>
      <point x="452" y="462"/>
      <point x="381" y="557"/>
      <point x="252" y="557" type="curve" smooth="yes"/>
      <point x="104" y="557"/>
      <point x="51" y="443"/>
      <point x="51" y="274" type="curve" smooth="yes"/>
      <point x="51" y="-240" type="line"/>
      <point x="182" y="-240" type="line"/>
      <point x="182" y="-104" type="line" smooth="yes"/>
      <point x="182" y="-67"/>
      <point x="181" y="-20"/>
      <point x="177" y="29" type="curve"/>
      <point x="183" y="29" type="line"/>
      <point x="207" y="6"/>
      <point x="238" y="-10"/>
      <point x="278" y="-10" type="curve" smooth="yes"/>
      <point x="406" y="-10"/>
      <point x="452" y="111"/>
    </contour>
    <contour>
      <point x="251" y="447" type="curve" smooth="yes"/>
      <point x="297" y="447"/>
      <point x="318" y="400"/>
      <point x="318" y="273" type="curve" smooth="yes"/>
      <point x="318" y="148"/>
      <point x="295" y="100"/>
      <point x="245" y="100" type="curve" smooth="yes"/>
      <point x="221" y="100"/>
      <point x="198" y="111"/>
      <point x="182" y="130" type="curve"/>
      <point x="182" y="302" type="line" smooth="yes"/>
      <point x="182" y="404"/>
      <point x="204" y="447"/>
    </contour>
  </outline>
</glyph>
<glyph name="sigma1" format="2">
  <advance width="394"/>
  <unicode hex="03C2"/>
  <anchor x="197" y="-186" name="bottom"/>
  <anchor x="230" y="547" name="top"/>
  <outline>
    <contour>
      <point x="243" y="557" type="curve" smooth="yes"/>
      <point x="106" y="557"/>
      <point x="34" y="457"/>
      <point x="34" y="258" type="curve" smooth="yes"/>
      <point x="34" y="101"/>
      <point x="72" y="49"/>
      <point x="169" y="15" type="curve" smooth="yes"/>
      <point x="234" y="-8"/>
      <point x="240" y="-27"/>
      <point x="240" y="-58" type="curve" smooth="yes"/>
      <point x="240" y="-82"/>
      <point x="216" y="-142"/>
      <point x="186" y="-186" type="curve"/>
      <point x="317" y="-186" type="line"/>
      <point x="350" y="-135"/>
      <point x="370" y="-79"/>
      <point x="370" y="-30" type="curve" smooth="yes"/>
      <point x="370" y="45"/>
      <point x="332" y="88"/>
      <point x="261" y="115" type="curve" smooth="yes"/>
      <point x="185" y="144"/>
      <point x="167" y="171"/>
      <point x="167" y="264" type="curve" smooth="yes"/>
      <point x="167" y="386"/>
      <point x="194" y="444"/>
      <point x="248" y="444" type="curve" smooth="yes"/>
      <point x="283" y="444"/>
      <point x="309" y="435"/>
      <point x="338" y="416" type="curve"/>
      <point x="374" y="521" type="line"/>
      <point x="331" y="545"/>
      <point x="288" y="557"/>
    </contour>
  </outline>
</glyph>
<glyph name="sigma" format="2">
  <advance width="507"/>
  <unicode hex="03C3"/>
  <anchor x="254" y="0" name="bottom"/>
  <anchor x="254" y="547" name="top"/>
  <outline>
    <contour>
      <point x="451" y="237" type="curve" smooth="yes"/>
      <point x="451" y="320"/>
      <point x="430" y="387"/>
      <point x="388" y="437" type="curve"/>
      <point x="486" y="437" type="line"/>
      <point x="486" y="547" type="line"/>
      <point x="294" y="547" type="line" smooth="yes"/>
      <point x="118" y="547"/>
      <point x="34" y="453"/>
      <point x="34" y="256" type="curve" smooth="yes"/>
      <point x="34" y="89"/>
      <point x="106" y="-10"/>
      <point x="242" y="-10" type="curve" smooth="yes"/>
      <point x="370" y="-10"/>
      <point x="451" y="84"/>
    </contour>
    <contour>
      <point x="167" y="257" type="curve" smooth="yes"/>
      <point x="167" y="381"/>
      <point x="196" y="437"/>
      <point x="265" y="437" type="curve" smooth="yes"/>
      <point x="279" y="437" type="line"/>
      <point x="306" y="379"/>
      <point x="318" y="322"/>
      <point x="318" y="258" type="curve" smooth="yes"/>
      <point x="318" y="153"/>
      <point x="292" y="100"/>
      <point x="243" y="100" type="curve" smooth="yes"/>
      <point x="194" y="100"/>
      <point x="167" y="148"/>
    </contour>
  </outline>
</glyph>
<glyph name="tau" format="2">
  <advance width="369"/>
  <unicode hex="03C4"/>
  <anchor x="184" y="-11" name="bottom"/>
  <anchor x="184" y="547" name="top"/>
  <outline>
    <contour>
      <point x="350" y="547" type="line"/>
      <point x="68" y="547" type="line"/>
      <point x="4" y="496" type="line"/>
      <point x="4" y="437" type="line"/>
      <point x="99" y="437" type="line"/>
      <point x="99" y="168" type="line" smooth="yes"/>
      <point x="99" y="44"/>
      <point x="140" y="-11"/>
      <point x="233" y="-11" type="curve" smooth="yes"/>
      <point x="272" y="-11"/>
      <point x="308" y="-2"/>
      <point x="335" y="13" type="curve"/>
      <point x="335" y="117" type="line"/>
      <point x="313" y="108"/>
      <point x="293" y="103"/>
      <point x="274" y="103" type="curve" smooth="yes"/>
      <point x="244" y="103"/>
      <point x="230" y="127"/>
      <point x="230" y="174" type="curve" smooth="yes"/>
      <point x="230" y="437" type="line"/>
      <point x="350" y="437" type="line"/>
    </contour>
  </outline>
</glyph>
<glyph name="upsilon" format="2">
  <advance width="489"/>
  <unicode hex="03C5"/>
  <anchor x="244" y="0" name="bottom"/>
  <anchor x="240" y="547" name="top"/>
  <outline>
    <contour>
      <point x="241" y="-9" type="curve"/>
      <point x="374" y="-9"/>
      <point x="447" y="90"/>
      <point x="447" y="287" type="curve" smooth="yes"/>
      <point x="447" y="379"/>
      <point x="440" y="440"/>
      <point x="418" y="547" type="curve"/>
      <point x="288" y="547" type="line"/>
      <point x="307" y="452"/>
      <point x="316" y="369"/>
      <point x="316" y="286" type="curve" smooth="yes"/>
      <point x="316" y="159"/>
      <point x="294" y="106"/>
      <point x="244" y="106" type="curve" smooth="yes"/>
      <point x="197" y="106"/>
      <point x="183" y="147"/>
      <point x="183" y="230" type="curve" smooth="yes"/>
      <point x="183" y="547" type="line"/>
      <point x="52" y="547" type="line"/>
      <point x="52" y="244" type="line"/>
      <point x="53" y="66"/>
      <point x="107" y="-8"/>
    </contour>
  </outline>
</glyph>
<glyph name="chi" format="2">
  <advance width="451"/>
  <unicode hex="03C7"/>
  <anchor x="226" y="-240" name="bottom"/>
  <anchor x="226" y="547" name="top"/>
  <anchor x="432" y="547" name="topright"/>
  <outline>
    <contour>
      <point x="81" y="555" type="curve" smooth="yes"/>
      <point x="55" y="555"/>
      <point x="30" y="552"/>
      <point x="14" y="547" type="curve"/>
      <point x="14" y="440" type="line"/>
      <point x="24" y="443"/>
      <point x="38" y="446"/>
      <point x="50" y="446" type="curve" smooth="yes"/>
      <point x="75" y="446"/>
      <point x="91" y="430"/>
      <point x="106" y="375" type="curve" smooth="yes"/>
      <point x="160" y="179" type="line"/>
      <point x="-14" y="-240" type="line"/>
      <point x="125" y="-240" type="line"/>
      <point x="206" y="11" type="line"/>
      <point x="227" y="-83" type="line" smooth="yes"/>
      <point x="254" y="-203"/>
      <point x="298" y="-240"/>
      <point x="377" y="-240" type="curve" smooth="yes"/>
      <point x="409" y="-240"/>
      <point x="429" y="-237"/>
      <point x="447" y="-233" type="curve"/>
      <point x="447" y="-125" type="line"/>
      <point x="435" y="-128"/>
      <point x="424" y="-130"/>
      <point x="411" y="-130" type="curve" smooth="yes"/>
      <point x="375" y="-130"/>
      <point x="363" y="-116"/>
      <point x="340" y="-26" type="curve" smooth="yes"/>
      <point x="291" y="168" type="line"/>
      <point x="445" y="547" type="line"/>
      <point x="312" y="547" type="line"/>
      <point x="242" y="336" type="line"/>
      <point x="224" y="414" type="line" smooth="yes"/>
      <point x="200" y="517"/>
      <point x="160" y="555"/>
    </contour>
  </outline>
</glyph>
<glyph name="psi" format="2">
  <advance width="659"/>
  <unicode hex="03C8"/>
  <anchor x="329" y="-240" name="bottom"/>
  <anchor x="329" y="759" name="top"/>
  <outline>
    <contour>
      <point x="394" y="759" type="line"/>
      <point x="266" y="759" type="line"/>
      <point x="266" y="106" type="line"/>
      <point x="203" y="113"/>
      <point x="182" y="159"/>
      <point x="182" y="258" type="curve" smooth="yes"/>
      <point x="182" y="547" type="line"/>
      <point x="51" y="547" type="line"/>
      <point x="51" y="251" type="line" smooth="yes"/>
      <point x="51" y="73"/>
      <point x="124" y="-3"/>
      <point x="266" y="-9" type="curve"/>
      <point x="266" y="-240" type="line"/>
      <point x="394" y="-240" type="line"/>
      <point x="394" y="-9" type="line"/>
      <point x="539" y="0"/>
      <point x="615" y="101"/>
      <point x="615" y="282" type="curve" smooth="yes"/>
      <point x="615" y="365"/>
      <point x="606" y="442"/>
      <point x="579" y="547" type="curve"/>
      <point x="451" y="547" type="line"/>
      <point x="473" y="455"/>
      <point x="484" y="368"/>
      <point x="484" y="285" type="curve" smooth="yes"/>
      <point x="484" y="164"/>
      <point x="460" y="115"/>
      <point x="394" y="106" type="curve"/>
    </contour>
  </outline>
</glyph>
<glyph name="omega" format="2">
  <advance width="672"/>
  <unicode hex="03C9"/>
  <anchor x="336" y="0" name="bottom"/>
  <anchor x="335" y="547" name="top"/>
  <outline>
    <contour>
      <point x="584" y="547" type="curve"/>
      <point x="452" y="547" type="line"/>
      <point x="483" y="461"/>
      <point x="497" y="363"/>
      <point x="497" y="269" type="curve" smooth="yes"/>
      <point x="497" y="161"/>
      <point x="480" y="110"/>
      <point x="445" y="110" type="curve" smooth="yes"/>
      <point x="409" y="110"/>
      <point x="399" y="141"/>
      <point x="399" y="241" type="curve" smooth="yes"/>
      <point x="399" y="374" type="line"/>
      <point x="272" y="374" type="line"/>
      <point x="272" y="241" type="line" smooth="yes"/>
      <point x="272" y="145"/>
      <point x="261" y="110"/>
      <point x="227" y="110" type="curve" smooth="yes"/>
      <point x="189" y="110"/>
      <point x="175" y="160"/>
      <point x="175" y="271" type="curve" smooth="yes"/>
      <point x="175" y="372"/>
      <point x="190" y="464"/>
      <point x="219" y="547" type="curve"/>
      <point x="88" y="547" type="line"/>
      <point x="55" y="443"/>
      <point x="44" y="368"/>
      <point x="44" y="265" type="curve" smooth="yes"/>
      <point x="44" y="94"/>
      <point x="106" y="-10"/>
      <point x="212" y="-10" type="curve" smooth="yes"/>
      <point x="278" y="-10"/>
      <point x="316" y="22"/>
      <point x="334" y="90" type="curve"/>
      <point x="338" y="90" type="line"/>
      <point x="355" y="22"/>
      <point x="396" y="-10"/>
      <point x="458" y="-10" type="curve" smooth="yes"/>
      <point x="564" y="-10"/>
      <point x="628" y="92"/>
      <point x="628" y="265" type="curve" smooth="yes"/>
      <point x="628" y="365"/>
      <point x="616" y="447"/>
    </contour>
  </outline>
</glyph>
<glyph name="uni03D2" format="2">
  <advance width="470"/>
  <unicode hex="03D2"/>
  <anchor x="234" y="714" name="top"/>
  <outline>
    <contour>
      <point x="234" y="432" type="curve"/>
      <point x="147" y="714" type="line"/>
      <point x="0" y="714" type="line"/>
      <point x="165" y="271" type="line"/>
      <point x="165" y="0" type="line"/>
      <point x="302" y="0" type="line"/>
      <point x="302" y="276" type="line"/>
      <point x="326" y="366"/>
      <point x="353" y="452"/>
      <point x="376" y="508" type="curve" smooth="yes"/>
      <point x="404" y="575"/>
      <point x="423" y="601"/>
      <point x="446" y="601" type="curve" smooth="yes"/>
      <point x="453" y="601"/>
      <point x="462" y="599"/>
      <point x="471" y="595" type="curve"/>
      <point x="471" y="706" type="line"/>
      <point x="453" y="715"/>
      <point x="431" y="720"/>
      <point x="406" y="720" type="curve" smooth="yes"/>
      <point x="338" y="720"/>
      <point x="314" y="678"/>
      <point x="287" y="606" type="curve" smooth="yes"/>
      <point x="266" y="549"/>
      <point x="249" y="497"/>
    </contour>
  </outline>
</glyph>
<glyph name="uni03D7" format="2">
  <advance width="546"/>
  <unicode hex="03D7"/>
  <outline>
    <contour>
      <point x="400" y="-240" type="curve" smooth="yes"/>
      <point x="474" y="-240"/>
      <point x="530" y="-191"/>
      <point x="530" y="-70" type="curve" smooth="yes"/>
      <point x="530" y="105" type="line"/>
      <point x="523" y="101"/>
      <point x="510" y="97"/>
      <point x="491" y="97" type="curve" smooth="yes"/>
      <point x="451" y="97"/>
      <point x="435" y="124"/>
      <point x="435" y="211" type="curve" smooth="yes"/>
      <point x="435" y="320"/>
      <point x="463" y="427"/>
      <point x="518" y="544" type="curve"/>
      <point x="378" y="545" type="line"/>
      <point x="209" y="246" type="line"/>
      <point x="214" y="275"/>
      <point x="219" y="316"/>
      <point x="219" y="383" type="curve" smooth="yes"/>
      <point x="219" y="515"/>
      <point x="159" y="557"/>
      <point x="85" y="557" type="curve" smooth="yes"/>
      <point x="49" y="557"/>
      <point x="18" y="550"/>
      <point x="4" y="543" type="curve"/>
      <point x="19" y="439" type="line"/>
      <point x="26" y="444"/>
      <point x="33" y="447"/>
      <point x="47" y="447" type="curve" smooth="yes"/>
      <point x="80" y="447"/>
      <point x="94" y="404"/>
      <point x="94" y="320" type="curve" smooth="yes"/>
      <point x="94" y="194"/>
      <point x="61" y="77"/>
      <point x="29" y="0" type="curve"/>
      <point x="165" y="0" type="line"/>
      <point x="320" y="277" type="line"/>
      <point x="315" y="240"/>
      <point x="310" y="201"/>
      <point x="310" y="151" type="curve" smooth="yes"/>
      <point x="310" y="44"/>
      <point x="346" y="3"/>
      <point x="400" y="-4" type="curve"/>
      <point x="400" y="-68" type="line" smooth="yes"/>
      <point x="400" y="-122"/>
      <point x="387" y="-138"/>
      <point x="361" y="-138" type="curve" smooth="yes"/>
      <point x="350" y="-138"/>
      <point x="337" y="-136"/>
      <point x="326" y="-131" type="curve"/>
      <point x="326" y="-229" type="line"/>
      <point x="347" y="-237"/>
      <point x="375" y="-240"/>
    </contour>
  </outline>
</glyph>
<glyph name="uni03DB" format="2">
  <advance width="394"/>
  <unicode hex="03DB"/>
  <anchor x="197" y="-220" name="bottom"/>
  <anchor x="197" y="547" name="top"/>
  <outline>
    <contour>
      <point x="199" y="-220" type="curve" smooth="yes"/>
      <point x="307" y="-220"/>
      <point x="369" y="-160"/>
      <point x="369" y="-45" type="curve" smooth="yes"/>
      <point x="369" y="36"/>
      <point x="337" y="86"/>
      <point x="261" y="115" type="curve" smooth="yes"/>
      <point x="185" y="144"/>
      <point x="167" y="171"/>
      <point x="167" y="264" type="curve" smooth="yes"/>
      <point x="167" y="386"/>
      <point x="194" y="444"/>
      <point x="248" y="444" type="curve" smooth="yes"/>
      <point x="283" y="444"/>
      <point x="309" y="435"/>
      <point x="338" y="416" type="curve"/>
      <point x="374" y="521" type="line"/>
      <point x="331" y="545"/>
      <point x="288" y="557"/>
      <point x="243" y="557" type="curve" smooth="yes"/>
      <point x="106" y="557"/>
      <point x="34" y="457"/>
      <point x="34" y="258" type="curve" smooth="yes"/>
      <point x="34" y="101"/>
      <point x="72" y="52"/>
      <point x="168" y="15" type="curve" smooth="yes"/>
      <point x="229" y="-9"/>
      <point x="240" y="-27"/>
      <point x="240" y="-62" type="curve" smooth="yes"/>
      <point x="240" y="-89"/>
      <point x="222" y="-107"/>
      <point x="187" y="-107" type="curve" smooth="yes"/>
      <point x="160" y="-107"/>
      <point x="133" y="-100"/>
      <point x="108" y="-91" type="curve"/>
      <point x="108" y="-209" type="line"/>
      <point x="137" y="-217"/>
      <point x="167" y="-220"/>
    </contour>
  </outline>
</glyph>
<glyph name="uni03DC" format="2">
  <advance width="411"/>
  <unicode hex="03DC"/>
  <anchor x="205" y="0" name="bottom"/>
  <anchor x="205" y="714" name="top"/>
  <outline>
    <contour>
      <point x="61" y="0" type="line"/>
      <point x="199" y="0" type="line"/>
      <point x="199" y="286" type="line"/>
      <point x="281" y="286" type="line"/>
      <point x="281" y="176" type="line"/>
      <point x="377" y="176" type="line"/>
      <point x="377" y="403" type="line"/>
      <point x="199" y="403" type="line"/>
      <point x="199" y="597" type="line"/>
      <point x="380" y="597" type="line"/>
      <point x="380" y="714" type="line"/>
      <point x="61" y="714" type="line"/>
    </contour>
  </outline>
</glyph>
<glyph name="uni03DD" format="2">
  <advance width="416"/>
  <unicode hex="03DD"/>
  <anchor x="208" y="-240" name="bottom"/>
  <anchor x="208" y="547" name="top"/>
  <outline>
    <contour>
      <point x="184" y="-240" type="line"/>
      <point x="184" y="148" type="line"/>
      <point x="262" y="148" type="line"/>
      <point x="262" y="40" type="line"/>
      <point x="371" y="40" type="line"/>
      <point x="371" y="258" type="line"/>
      <point x="184" y="258" type="line"/>
      <point x="184" y="437" type="line"/>
      <point x="386" y="437" type="line"/>
      <point x="386" y="547" type="line"/>
      <point x="53" y="547" type="line"/>
      <point x="53" y="-240" type="line"/>
    </contour>
  </outline>
</glyph>
<glyph name="uni03F1" format="2">
  <advance width="479"/>
  <unicode hex="03F1"/>
  <anchor x="240" y="-240" name="bottom"/>
  <anchor x="240" y="547" name="top"/>
  <outline>
    <contour>
      <point x="248" y="557" type="curve" smooth="yes"/>
      <point x="115" y="557"/>
      <point x="36" y="454"/>
      <point x="36" y="181" type="curve" smooth="yes"/>
      <point x="36" y="-81"/>
      <point x="83" y="-194"/>
      <point x="244" y="-194" type="curve" smooth="yes"/>
      <point x="266" y="-194"/>
      <point x="282" y="-202"/>
      <point x="282" y="-218" type="curve" smooth="yes"/>
      <point x="282" y="-227"/>
      <point x="280" y="-234"/>
      <point x="277" y="-240" type="curve"/>
      <point x="393" y="-240" type="line"/>
      <point x="398" y="-229"/>
      <point x="402" y="-207"/>
      <point x="402" y="-183" type="curve" smooth="yes"/>
      <point x="402" y="-107"/>
      <point x="363" y="-87"/>
      <point x="287" y="-87" type="curve" smooth="yes"/>
      <point x="202" y="-87"/>
      <point x="166" y="-45"/>
      <point x="166" y="77" type="curve"/>
      <point x="172" y="77" type="line"/>
      <point x="191" y="26"/>
      <point x="234" y="-10"/>
      <point x="285" y="-10" type="curve" smooth="yes"/>
      <point x="386" y="-10"/>
      <point x="445" y="83"/>
      <point x="445" y="253" type="curve" smooth="yes"/>
      <point x="445" y="443"/>
      <point x="379" y="557"/>
    </contour>
    <contour>
      <point x="244" y="447" type="curve" smooth="yes"/>
      <point x="289" y="447"/>
      <point x="312" y="388"/>
      <point x="312" y="269" type="curve" smooth="yes"/>
      <point x="312" y="152"/>
      <point x="290" y="94"/>
      <point x="246" y="94" type="curve" smooth="yes"/>
      <point x="214" y="94"/>
      <point x="180" y="144"/>
      <point x="169" y="187" type="curve"/>
      <point x="169" y="200"/>
      <point x="169" y="212"/>
      <point x="169" y="224" type="curve" smooth="yes"/>
      <point x="169" y="378"/>
      <point x="195" y="447"/>
    </contour>
  </outline>
</glyph>
<glyph name="uni03FC" format="2">
  <advance width="485"/>
  <unicode hex="03FC"/>
  <anchor x="243" y="-240" name="bottom"/>
  <anchor x="243" y="547" name="top"/>
  <outline>
    <contour>
      <point x="51" y="-240" type="line"/>
      <point x="181" y="-240" type="line"/>
      <point x="181" y="-178" type="line"/>
      <point x="285" y="-178" type="line"/>
      <point x="285" y="-83" type="line"/>
      <point x="181" y="-83" type="line"/>
      <point x="180" y="-48"/>
      <point x="178" y="-12"/>
      <point x="175" y="26" type="curve"/>
      <point x="183" y="26" type="line"/>
      <point x="207" y="4"/>
      <point x="244" y="-10"/>
      <point x="285" y="-10" type="curve" smooth="yes"/>
      <point x="416" y="-10"/>
      <point x="451" y="147"/>
      <point x="451" y="273" type="curve" smooth="yes"/>
      <point x="451" y="462"/>
      <point x="365" y="557"/>
      <point x="252" y="557" type="curve" smooth="yes"/>
      <point x="106" y="557"/>
      <point x="51" y="436"/>
      <point x="51" y="274" type="curve" smooth="yes"/>
      <point x="51" y="-83" type="line"/>
      <point x="1" y="-83" type="line"/>
      <point x="1" y="-178" type="line"/>
      <point x="51" y="-178" type="line"/>
    </contour>
    <contour>
      <point x="249" y="100" type="curve" smooth="yes"/>
      <point x="224" y="100"/>
      <point x="198" y="113"/>
      <point x="181" y="140" type="curve"/>
      <point x="181" y="294" type="line" smooth="yes"/>
      <point x="181" y="397"/>
      <point x="204" y="447"/>
      <point x="250" y="447" type="curve" smooth="yes"/>
      <point x="297" y="447"/>
      <point x="318" y="392"/>
      <point x="318" y="273" type="curve" smooth="yes"/>
      <point x="318" y="155"/>
      <point x="298" y="100"/>
    </contour>
  </outline>
</glyph>
<glyph name="uni0488" format="2">
  <advance width="874"/>
  <unicode hex="0488"/>
  <outline>
    <contour>
      <point x="573" y="458" type="curve"/>
      <point x="622" y="458" type="line"/>
      <point x="625" y="484"/>
      <point x="644" y="496"/>
      <point x="682" y="496" type="curve" smooth="yes"/>
      <point x="724" y="496"/>
      <point x="739" y="484"/>
      <point x="742" y="458" type="curve"/>
      <point x="792" y="458" type="line"/>
      <point x="790" y="518"/>
      <point x="746" y="556"/>
      <point x="682" y="556" type="curve" smooth="yes"/>
      <point x="618" y="556"/>
      <point x="576" y="516"/>
    </contour>
    <contour>
      <point x="81" y="-20" type="curve"/>
      <point x="131" y="-20" type="line"/>
      <point x="133" y="5"/>
      <point x="154" y="18"/>
      <point x="190" y="18" type="curve" smooth="yes"/>
      <point x="233" y="18"/>
      <point x="248" y="5"/>
      <point x="251" y="-20" type="curve"/>
      <point x="301" y="-20" type="line"/>
      <point x="297" y="42"/>
      <point x="255" y="78"/>
      <point x="190" y="78" type="curve" smooth="yes"/>
      <point x="128" y="78"/>
      <point x="84" y="39"/>
    </contour>
    <contour>
      <point x="324" y="-156" type="curve"/>
      <point x="374" y="-156" type="line"/>
      <point x="375" y="-130"/>
      <point x="395" y="-118"/>
      <point x="433" y="-118" type="curve" smooth="yes"/>
      <point x="475" y="-118"/>
      <point x="490" y="-130"/>
      <point x="493" y="-156" type="curve"/>
      <point x="544" y="-156" type="line"/>
      <point x="541" y="-96"/>
      <point x="498" y="-58"/>
      <point x="433" y="-58" type="curve" smooth="yes"/>
      <point x="369" y="-58"/>
      <point x="327" y="-97"/>
    </contour>
    <contour>
      <point x="15" y="222" type="curve"/>
      <point x="65" y="222" type="line"/>
      <point x="66" y="248"/>
      <point x="87" y="260"/>
      <point x="125" y="260" type="curve" smooth="yes"/>
      <point x="167" y="260"/>
      <point x="182" y="248"/>
      <point x="184" y="222" type="curve"/>
      <point x="235" y="222" type="line"/>
      <point x="232" y="283"/>
      <point x="190" y="320"/>
      <point x="125" y="320" type="curve" smooth="yes"/>
      <point x="61" y="320"/>
      <point x="18" y="280"/>
    </contour>
    <contour>
      <point x="80" y="456" type="curve"/>
      <point x="129" y="456" type="line"/>
      <point x="132" y="482"/>
      <point x="153" y="494"/>
      <point x="189" y="494" type="curve" smooth="yes"/>
      <point x="232" y="494"/>
      <point x="247" y="482"/>
      <point x="249" y="456" type="curve"/>
      <point x="299" y="456" type="line"/>
      <point x="297" y="517"/>
      <point x="253" y="555"/>
      <point x="189" y="555" type="curve" smooth="yes"/>
      <point x="125" y="555"/>
      <point x="83" y="515"/>
    </contour>
    <contour>
      <point x="573" y="-20" type="curve"/>
      <point x="623" y="-20" type="line"/>
      <point x="625" y="6"/>
      <point x="644" y="18"/>
      <point x="682" y="18" type="curve" smooth="yes"/>
      <point x="724" y="18"/>
      <point x="739" y="6"/>
      <point x="742" y="-20" type="curve"/>
      <point x="793" y="-20" type="line"/>
      <point x="790" y="40"/>
      <point x="747" y="78"/>
      <point x="682" y="78" type="curve" smooth="yes"/>
      <point x="619" y="78"/>
      <point x="576" y="38"/>
    </contour>
    <contour>
      <point x="639" y="219" type="curve"/>
      <point x="690" y="219" type="line"/>
      <point x="691" y="245"/>
      <point x="711" y="257"/>
      <point x="749" y="257" type="curve" smooth="yes"/>
      <point x="791" y="257"/>
      <point x="807" y="245"/>
      <point x="810" y="219" type="curve"/>
      <point x="859" y="219" type="line"/>
      <point x="855" y="280"/>
      <point x="813" y="317"/>
      <point x="749" y="317" type="curve" smooth="yes"/>
      <point x="688" y="317"/>
      <point x="642" y="279"/>
    </contour>
    <contour>
      <point x="323" y="597" type="curve"/>
      <point x="373" y="597" type="line"/>
      <point x="374" y="623"/>
      <point x="395" y="635"/>
      <point x="432" y="635" type="curve" smooth="yes"/>
      <point x="474" y="635"/>
      <point x="490" y="623"/>
      <point x="493" y="597" type="curve"/>
      <point x="542" y="597" type="line"/>
      <point x="539" y="658"/>
      <point x="498" y="695"/>
      <point x="432" y="695" type="curve" smooth="yes"/>
      <point x="370" y="695"/>
      <point x="326" y="657"/>
    </contour>
  </outline>
</glyph>
<glyph name="uni0489" format="2">
  <advance width="868"/>
  <unicode hex="0489"/>
  <outline>
    <contour>
      <point x="725" y="594" type="line"/>
      <point x="681" y="578"/>
      <point x="610" y="544"/>
      <point x="572" y="521" type="curve"/>
      <point x="571" y="512" type="line"/>
      <point x="633" y="450" type="line"/>
      <point x="666" y="476"/>
      <point x="714" y="508"/>
      <point x="774" y="547" type="curve"/>
    </contour>
    <contour>
      <point x="235" y="83" type="line"/>
      <point x="204" y="58"/>
      <point x="156" y="26"/>
      <point x="94" y="-13" type="curve"/>
      <point x="143" y="-61" type="line"/>
      <point x="195" y="-41"/>
      <point x="253" y="-13"/>
      <point x="296" y="13" type="curve"/>
      <point x="298" y="22" type="line"/>
    </contour>
    <contour>
      <point x="15" y="332" type="curve"/>
      <point x="15" y="264" type="line"/>
      <point x="68" y="238"/>
      <point x="122" y="218"/>
      <point x="174" y="205" type="curve"/>
      <point x="181" y="209" type="line"/>
      <point x="181" y="297" type="line"/>
      <point x="141" y="303"/>
      <point x="85" y="314"/>
    </contour>
    <contour>
      <point x="494" y="-17" type="line"/>
      <point x="406" y="-17" type="line"/>
      <point x="401" y="-58"/>
      <point x="389" y="-115"/>
      <point x="373" y="-188" type="curve"/>
      <point x="440" y="-188" type="line"/>
      <point x="466" y="-130"/>
      <point x="486" y="-76"/>
      <point x="499" y="-24" type="curve"/>
    </contour>
    <contour>
      <point x="654" y="107" type="line"/>
      <point x="593" y="44" type="line"/>
      <point x="619" y="9"/>
      <point x="650" y="-39"/>
      <point x="686" y="-100" type="curve"/>
      <point x="734" y="-53" type="line"/>
      <point x="718" y="-6"/>
      <point x="684" y="66"/>
      <point x="663" y="105" type="curve"/>
    </contour>
    <contour>
      <point x="182" y="635" type="curve"/>
      <point x="133" y="587" type="line"/>
      <point x="155" y="527"/>
      <point x="179" y="475"/>
      <point x="205" y="429" type="curve"/>
      <point x="213" y="427" type="line"/>
      <point x="275" y="490" type="line"/>
      <point x="251" y="521"/>
      <point x="220" y="570"/>
    </contour>
    <contour>
      <point x="693" y="335" type="curve"/>
      <point x="686" y="330" type="line"/>
      <point x="686" y="242" type="line"/>
      <point x="729" y="236"/>
      <point x="784" y="225"/>
      <point x="852" y="208" type="curve"/>
      <point x="852" y="275" type="line"/>
      <point x="816" y="293"/>
      <point x="735" y="324"/>
    </contour>
    <contour>
      <point x="495" y="728" type="curve"/>
      <point x="428" y="728" type="line"/>
      <point x="408" y="684"/>
      <point x="381" y="609"/>
      <point x="370" y="564" type="curve"/>
      <point x="374" y="557" type="line"/>
      <point x="462" y="557" type="line"/>
      <point x="468" y="601"/>
      <point x="479" y="657"/>
    </contour>
  </outline>
</glyph>
<glyph name="uni049E" format="2">
  <advance width="500"/>
  <unicode hex="049E"/>
  <anchor x="255" y="0" name="bottom"/>
  <anchor x="255" y="714" name="top"/>
  <outline>
    <contour>
      <point x="9" y="551" type="line"/>
      <point x="259" y="551" type="line"/>
      <point x="259" y="650" type="line"/>
      <point x="9" y="650" type="line"/>
    </contour>
    <component base="afii10028"/>
  </outline>
</glyph>
<glyph name="uni04AC" format="2">
  <advance width="421"/>
  <unicode hex="04AC"/>
  <anchor x="211" y="-211" name="bottom"/>
  <anchor x="211" y="714" name="top"/>
  <outline>
    <contour>
      <point x="227" y="-211" type="line"/>
      <point x="360" y="-211" type="line"/>
      <point x="360" y="119" type="line"/>
      <point x="278" y="119" type="line"/>
      <point x="278" y="595" type="line"/>
      <point x="406" y="595" type="line"/>
      <point x="406" y="714" type="line"/>
      <point x="14" y="714" type="line"/>
      <point x="14" y="595" type="line"/>
      <point x="142" y="595" type="line"/>
      <point x="142" y="0" type="line"/>
      <point x="227" y="0" type="line"/>
    </contour>
  </outline>
</glyph>
<glyph name="uni04B0" format="2">
  <advance width="467"/>
  <unicode hex="04B0"/>
  <anchor x="234" y="0" name="bottom"/>
  <anchor x="234" y="714" name="top"/>
  <outline>
    <contour>
      <point x="165" y="0" type="line"/>
      <point x="302" y="0" type="line"/>
      <point x="302" y="145" type="line"/>
      <point x="412" y="145" type="line"/>
      <point x="412" y="259" type="line"/>
      <point x="302" y="259" type="line"/>
      <point x="302" y="275" type="line"/>
      <point x="467" y="714" type="line"/>
      <point x="322" y="714" type="line"/>
      <point x="235" y="431" type="line"/>
      <point x="147" y="714" type="line"/>
      <point x="0" y="714" type="line"/>
      <point x="165" y="271" type="line"/>
      <point x="165" y="259" type="line"/>
      <point x="55" y="259" type="line"/>
      <point x="55" y="145" type="line"/>
      <point x="165" y="145" type="line"/>
    </contour>
  </outline>
</glyph>
<glyph name="uni04B2" format="2">
  <advance width="523"/>
  <unicode hex="04B2"/>
  <anchor x="262" y="-211" name="bottom"/>
  <anchor x="262" y="714" name="top"/>
  <outline>
    <contour>
      <point x="378" y="-211" type="line"/>
      <point x="510" y="-211" type="line"/>
      <point x="510" y="119" type="line"/>
      <point x="422" y="119" type="line"/>
      <point x="319" y="364" type="line"/>
      <point x="463" y="714" type="line"/>
      <point x="314" y="714" type="line"/>
      <point x="238" y="489" type="line"/>
      <point x="159" y="714" type="line"/>
      <point x="13" y="714" type="line"/>
      <point x="163" y="363" type="line"/>
      <point x="1" y="0" type="line"/>
      <point x="149" y="0" type="line"/>
      <point x="243" y="239" type="line"/>
      <point x="329" y="0" type="line"/>
      <point x="378" y="0" type="line"/>
    </contour>
  </outline>
</glyph>
<glyph name="uni052A" format="2">
  <advance width="1141"/>
  <unicode hex="052A"/>
  <anchor x="576" y="-211" name="bottom"/>
  <anchor x="576" y="714" name="top"/>
  <outline>
    <contour>
      <point x="476" y="422" type="line"/>
      <point x="476" y="315" type="line"/>
      <point x="740" y="315" type="line"/>
      <point x="740" y="422" type="line"/>
    </contour>
    <component base="afii10021"/>
    <component base="afii10028" xOffset="641"/>
  </outline>
</glyph>
<glyph name="uni1ABA" format="2">
  <unicode hex="1ABA"/>
  <anchor x="2" y="90" name="_bottom"/>
  <anchor x="3" y="-237" name="bottom"/>
  <outline>
    <contour>
      <point x="8" y="40" type="line"/>
      <point x="-77" y="-178" type="line"/>
      <point x="13" y="-178" type="line"/>
      <point x="97" y="40" type="line"/>
    </contour>
    <contour>
      <point x="-94" y="-172" type="curve" smooth="yes"/>
      <point x="-94" y="-215"/>
      <point x="-72" y="-237"/>
      <point x="-29" y="-237" type="curve" smooth="yes"/>
      <point x="14" y="-237"/>
      <point x="36" y="-215"/>
      <point x="36" y="-172" type="curve" smooth="yes"/>
      <point x="36" y="-128"/>
      <point x="16" y="-105"/>
      <point x="-29" y="-105" type="curve" smooth="yes"/>
      <point x="-74" y="-105"/>
      <point x="-94" y="-127"/>
    </contour>
  </outline>
</glyph>
<glyph name="uni1D24" format="2">
  <advance width="367"/>
  <unicode hex="1D24"/>
  <anchor x="183" y="0" name="bottom"/>
  <anchor x="183" y="547" name="top"/>
  <outline>
    <contour>
      <point x="196" y="-10" type="curve" smooth="yes"/>
      <point x="248" y="-10"/>
      <point x="296" y="0"/>
      <point x="339" y="21" type="curve"/>
      <point x="339" y="146" type="line"/>
      <point x="303" y="122"/>
      <point x="256" y="103"/>
      <point x="209" y="103" type="curve" smooth="yes"/>
      <point x="175" y="103"/>
      <point x="155" y="122"/>
      <point x="155" y="154" type="curve" smooth="yes"/>
      <point x="155" y="184"/>
      <point x="175" y="201"/>
      <point x="224" y="215" type="curve"/>
      <point x="224" y="258" type="line"/>
      <point x="310" y="285"/>
      <point x="340" y="342"/>
      <point x="340" y="408" type="curve" smooth="yes"/>
      <point x="340" y="502"/>
      <point x="281" y="557"/>
      <point x="177" y="557" type="curve" smooth="yes"/>
      <point x="125" y="557"/>
      <point x="79" y="542"/>
      <point x="32" y="514" type="curve"/>
      <point x="67" y="414" type="line"/>
      <point x="97" y="435"/>
      <point x="133" y="451"/>
      <point x="168" y="451" type="curve" smooth="yes"/>
      <point x="198" y="451"/>
      <point x="214" y="432"/>
      <point x="214" y="406" type="curve" smooth="yes"/>
      <point x="214" y="379"/>
      <point x="191" y="358"/>
      <point x="147" y="346" type="curve"/>
      <point x="147" y="303" type="line"/>
      <point x="68" y="279"/>
      <point x="26" y="229"/>
      <point x="26" y="149" type="curve" smooth="yes"/>
      <point x="26" y="49"/>
      <point x="88" y="-10"/>
    </contour>
  </outline>
</glyph>
<glyph name="uni1D28" format="2">
  <advance width="492"/>
  <unicode hex="1D28"/>
  <outline>
    <contour>
      <point x="438" y="0" type="line"/>
      <point x="438" y="547" type="line"/>
      <point x="53" y="547" type="line"/>
      <point x="53" y="0" type="line"/>
      <point x="184" y="0" type="line"/>
      <point x="184" y="437" type="line"/>
      <point x="307" y="437" type="line"/>
      <point x="307" y="0" type="line"/>
    </contour>
  </outline>
</glyph>
<glyph name="uni1D7A" format="2">
  <advance width="818"/>
  <unicode hex="1D7A"/>
  <anchor x="186" y="0" name="bottom_1"/>
  <anchor x="564" y="0" name="bottom_2"/>
  <anchor x="137" y="274" name="center_1"/>
  <anchor x="562" y="274" name="center_2"/>
  <anchor x="137" y="662" name="top_1"/>
  <anchor x="435" y="760" name="top_2"/>
  <anchor x="189" y="860" name="topright_1"/>
  <anchor x="758" y="760" name="topright_2"/>
  <outline>
    <contour>
      <point x="65" y="-75" type="line"/>
      <point x="135.993" y="-75" type="line"/>
      <point x="699" y="760" type="line"/>
      <point x="628" y="760" type="line"/>
    </contour>
    <component base="t"/>
    <component base="h" xOffset="317"/>
  </outline>
</glyph>
<glyph name="uni1D7B" format="2">
  <advance width="319"/>
  <unicode hex="1D7B"/>
  <anchor x="160" y="0" name="bottom"/>
  <anchor x="160" y="547" name="top"/>
  <outline>
    <contour>
      <point x="280" y="339" type="line"/>
      <point x="39" y="339" type="line"/>
      <point x="39" y="244" type="line"/>
      <point x="280" y="244" type="line"/>
    </contour>
    <component base="uni026A"/>
  </outline>
</glyph>
<glyph name="uni1D7D" format="2">
  <advance width="500"/>
  <unicode hex="1D7D"/>
  <anchor x="118" y="-240" name="bottom"/>
  <anchor x="268" y="547" name="top"/>
  <anchor x="469" y="547" name="topright"/>
  <outline>
    <contour>
      <point x="496" y="319" type="line"/>
      <point x="1" y="319" type="line"/>
      <point x="1" y="228" type="line"/>
      <point x="496" y="228" type="line"/>
    </contour>
    <component base="p"/>
  </outline>
</glyph>
<glyph name="uni1D7F" format="2">
  <advance width="495"/>
  <unicode hex="1D7F"/>
  <anchor x="247" y="0" name="bottom"/>
  <anchor x="247" y="547" name="top"/>
  <outline>
    <contour>
      <point x="499" y="319" type="line"/>
      <point x="-4" y="319" type="line"/>
      <point x="-4" y="228" type="line"/>
      <point x="499" y="228" type="line"/>
    </contour>
    <component base="uni028A"/>
  </outline>
</glyph>
<glyph name="uni1D88" format="2">
  <advance width="500"/>
  <unicode hex="1D88"/>
  <anchor x="118" y="-240" name="bottom"/>
  <anchor x="268" y="547" name="top"/>
  <anchor x="469" y="547" name="topright"/>
  <outline>
    <contour>
      <point x="431" y="114" type="line"/>
      <point x="315" y="24" type="line"/>
      <point x="315" y="-55" type="line" smooth="yes"/>
      <point x="315" y="-103"/>
      <point x="304" y="-123"/>
      <point x="274" y="-123" type="curve" smooth="yes"/>
      <point x="263" y="-123"/>
      <point x="251" y="-121"/>
      <point x="239" y="-116" type="curve"/>
      <point x="239" y="-214" type="line"/>
      <point x="256" y="-220"/>
      <point x="281" y="-224"/>
      <point x="314" y="-224" type="curve" smooth="yes"/>
      <point x="394" y="-224"/>
      <point x="431" y="-179"/>
      <point x="431" y="-69" type="curve" smooth="yes"/>
    </contour>
    <component base="p"/>
  </outline>
</glyph>
<glyph name="uni1FBD" format="2">
  <advance width="237"/>
  <unicode hex="1FBD"/>
  <anchor x="123" y="541" name="_top"/>
  <outline>
    <contour>
      <point x="60" y="591" type="line"/>
      <point x="142" y="594"/>
      <point x="181" y="639"/>
      <point x="181" y="707" type="curve" smooth="yes"/>
      <point x="181" y="752"/>
      <point x="156" y="781"/>
      <point x="120" y="781" type="curve" smooth="yes"/>
      <point x="87" y="781"/>
      <point x="66" y="763"/>
      <point x="66" y="731" type="curve" smooth="yes"/>
      <point x="66" y="699"/>
      <point x="81" y="681"/>
      <point x="115" y="680" type="curve"/>
      <point x="115" y="655"/>
      <point x="91" y="634"/>
      <point x="60" y="632" type="curve"/>
    </contour>
  </outline>
</glyph>
<glyph name="uni1FBE" format="2">
  <advance width="582"/>
  <unicode hex="1FBE"/>
  <outline>
    <contour>
      <point x="324" y="-109" type="curve" smooth="yes"/>
      <point x="324" y="-55" type="line"/>
      <point x="221" y="-55" type="line"/>
      <point x="221" y="-133" type="line" smooth="yes"/>
      <point x="221" y="-200"/>
      <point x="256" y="-234"/>
      <point x="319" y="-234" type="curve" smooth="yes"/>
      <point x="344" y="-234"/>
      <point x="369" y="-229"/>
      <point x="384" y="-223" type="curve"/>
      <point x="384" y="-142" type="line"/>
      <point x="375" y="-145"/>
      <point x="364" y="-147"/>
      <point x="354" y="-147" type="curve" smooth="yes"/>
      <point x="337" y="-147"/>
      <point x="324" y="-138"/>
    </contour>
  </outline>
</glyph>
<glyph name="uni1FC1" format="2">
  <advance width="486"/>
  <unicode hex="1FC1"/>
  <anchor x="238" y="546" name="_top"/>
  <outline>
    <contour>
      <point x="102" y="751" type="curve"/>
      <point x="158" y="751" type="line"/>
      <point x="164" y="786"/>
      <point x="176" y="796"/>
      <point x="185" y="796" type="curve" smooth="yes"/>
      <point x="219" y="796"/>
      <point x="262" y="752"/>
      <point x="304" y="752" type="curve" smooth="yes"/>
      <point x="343" y="752"/>
      <point x="378" y="787"/>
      <point x="385" y="869" type="curve"/>
      <point x="328" y="869" type="line"/>
      <point x="323" y="834"/>
      <point x="312" y="824"/>
      <point x="302" y="824" type="curve" smooth="yes"/>
      <point x="267" y="824"/>
      <point x="222" y="868"/>
      <point x="186" y="868" type="curve" smooth="yes"/>
      <point x="141" y="868"/>
      <point x="109" y="832"/>
    </contour>
    <contour>
      <point x="164" y="596" type="curve" smooth="yes"/>
      <point x="195" y="596"/>
      <point x="218" y="617"/>
      <point x="218" y="654" type="curve" smooth="yes"/>
      <point x="218" y="693"/>
      <point x="195" y="714"/>
      <point x="164" y="714" type="curve" smooth="yes"/>
      <point x="131" y="714"/>
      <point x="111" y="694"/>
      <point x="111" y="654" type="curve" smooth="yes"/>
      <point x="111" y="617"/>
      <point x="131" y="596"/>
    </contour>
    <contour>
      <point x="315" y="596" type="curve" smooth="yes"/>
      <point x="347" y="596"/>
      <point x="369" y="617"/>
      <point x="369" y="654" type="curve" smooth="yes"/>
      <point x="369" y="693"/>
      <point x="347" y="714"/>
      <point x="315" y="714" type="curve" smooth="yes"/>
      <point x="281" y="714"/>
      <point x="262" y="694"/>
      <point x="262" y="654" type="curve" smooth="yes"/>
      <point x="262" y="617"/>
      <point x="281" y="596"/>
    </contour>
  </outline>
</glyph>
<glyph name="uni1FCD" format="2">
  <advance width="509"/>
  <unicode hex="1FCD"/>
  <outline>
    <contour>
      <point x="331" y="612" type="curve"/>
      <point x="390" y="612" type="line"/>
      <point x="390" y="624" type="line"/>
      <point x="378" y="661"/>
      <point x="365" y="717"/>
      <point x="359" y="765" type="curve"/>
      <point x="254" y="765" type="line"/>
      <point x="254" y="751" type="line"/>
      <point x="269" y="708"/>
      <point x="300" y="656"/>
    </contour>
    <contour>
      <point x="139" y="641" type="curve"/>
      <point x="139" y="604" type="line"/>
      <point x="206" y="605"/>
      <point x="245" y="645"/>
      <point x="245" y="702" type="curve" smooth="yes"/>
      <point x="245" y="750"/>
      <point x="225" y="775"/>
      <point x="185" y="775" type="curve" smooth="yes"/>
      <point x="150" y="775"/>
      <point x="134" y="755"/>
      <point x="134" y="728" type="curve" smooth="yes"/>
      <point x="134" y="689"/>
      <point x="170" y="692"/>
      <point x="170" y="675" type="curve" smooth="yes"/>
      <point x="170" y="657"/>
      <point x="163" y="643"/>
    </contour>
  </outline>
</glyph>
<glyph name="uni1FCE" format="2">
  <advance width="509"/>
  <unicode hex="1FCE"/>
  <outline>
    <contour>
      <point x="255" y="624" type="curve"/>
      <point x="255" y="612" type="line"/>
      <point x="315" y="612" type="line"/>
      <point x="345" y="656"/>
      <point x="375" y="708"/>
      <point x="391" y="751" type="curve"/>
      <point x="391" y="765" type="line"/>
      <point x="286" y="765" type="line"/>
      <point x="279" y="717"/>
      <point x="267" y="661"/>
    </contour>
    <contour>
      <point x="142" y="641" type="curve"/>
      <point x="142" y="604" type="line"/>
      <point x="209" y="605"/>
      <point x="248" y="645"/>
      <point x="248" y="702" type="curve" smooth="yes"/>
      <point x="248" y="750"/>
      <point x="228" y="775"/>
      <point x="188" y="775" type="curve" smooth="yes"/>
      <point x="153" y="775"/>
      <point x="137" y="755"/>
      <point x="137" y="728" type="curve" smooth="yes"/>
      <point x="137" y="689"/>
      <point x="173" y="692"/>
      <point x="173" y="671" type="curve" smooth="yes"/>
      <point x="173" y="657"/>
      <point x="166" y="643"/>
    </contour>
  </outline>
</glyph>
<glyph name="uni1FCF" format="2">
  <advance width="501"/>
  <unicode hex="1FCF"/>
  <outline>
    <contour>
      <point x="108" y="755" type="curve"/>
      <point x="164" y="755" type="line"/>
      <point x="171" y="791"/>
      <point x="186" y="802"/>
      <point x="196" y="802" type="curve" smooth="yes"/>
      <point x="230" y="802"/>
      <point x="272" y="756"/>
      <point x="315" y="756" type="curve" smooth="yes"/>
      <point x="356" y="756"/>
      <point x="391" y="794"/>
      <point x="398" y="875" type="curve"/>
      <point x="341" y="875" type="line"/>
      <point x="335" y="840"/>
      <point x="320" y="828"/>
      <point x="310" y="828" type="curve" smooth="yes"/>
      <point x="274" y="828"/>
      <point x="230" y="874"/>
      <point x="193" y="874" type="curve" smooth="yes"/>
      <point x="147" y="874"/>
      <point x="115" y="838"/>
    </contour>
    <contour>
      <point x="199" y="621" type="curve"/>
      <point x="199" y="585" type="line"/>
      <point x="265" y="586"/>
      <point x="306" y="624"/>
      <point x="306" y="678" type="curve" smooth="yes"/>
      <point x="306" y="722"/>
      <point x="285" y="746"/>
      <point x="244" y="746" type="curve" smooth="yes"/>
      <point x="210" y="746"/>
      <point x="195" y="727"/>
      <point x="195" y="701" type="curve" smooth="yes"/>
      <point x="195" y="667"/>
      <point x="227" y="670"/>
      <point x="230" y="653" type="curve"/>
      <point x="230" y="637"/>
      <point x="223" y="623"/>
    </contour>
  </outline>
</glyph>
<glyph name="uni1FDD" format="2">
  <advance width="526"/>
  <unicode hex="1FDD"/>
  <anchor x="257" y="547" name="_top"/>
  <anchor x="261" y="775" name="top"/>
  <outline>
    <contour>
      <point x="331" y="612" type="curve"/>
      <point x="391" y="612" type="line"/>
      <point x="391" y="624" type="line"/>
      <point x="379" y="661"/>
      <point x="366" y="717"/>
      <point x="360" y="765" type="curve"/>
      <point x="254" y="765" type="line"/>
      <point x="254" y="751" type="line"/>
      <point x="270" y="708"/>
      <point x="302" y="656"/>
    </contour>
    <contour>
      <point x="233" y="604" type="curve"/>
      <point x="233" y="641" type="line"/>
      <point x="209" y="643"/>
      <point x="201" y="657"/>
      <point x="201" y="675" type="curve" smooth="yes"/>
      <point x="201" y="692"/>
      <point x="238" y="689"/>
      <point x="238" y="728" type="curve" smooth="yes"/>
      <point x="238" y="755"/>
      <point x="222" y="775"/>
      <point x="188" y="775" type="curve" smooth="yes"/>
      <point x="148" y="775"/>
      <point x="127" y="750"/>
      <point x="127" y="702" type="curve" smooth="yes"/>
      <point x="127" y="645"/>
      <point x="167" y="605"/>
    </contour>
  </outline>
</glyph>
<glyph name="uni1FDE" format="2">
  <advance width="526"/>
  <unicode hex="1FDE"/>
  <anchor x="252" y="547" name="_top"/>
  <anchor x="271" y="775" name="top"/>
  <outline>
    <contour>
      <point x="265" y="612" type="line"/>
      <point x="325" y="612" type="line"/>
      <point x="355" y="656"/>
      <point x="385" y="708"/>
      <point x="401" y="751" type="curve"/>
      <point x="401" y="765" type="line"/>
      <point x="296" y="765" type="line"/>
      <point x="290" y="717"/>
      <point x="277" y="661"/>
      <point x="265" y="624" type="curve"/>
    </contour>
    <contour>
      <point x="243" y="604" type="curve"/>
      <point x="243" y="641" type="line"/>
      <point x="219" y="643"/>
      <point x="211" y="657"/>
      <point x="211" y="675" type="curve" smooth="yes"/>
      <point x="211" y="692"/>
      <point x="248" y="689"/>
      <point x="248" y="728" type="curve" smooth="yes"/>
      <point x="248" y="755"/>
      <point x="232" y="775"/>
      <point x="198" y="775" type="curve" smooth="yes"/>
      <point x="158" y="775"/>
      <point x="137" y="750"/>
      <point x="137" y="702" type="curve" smooth="yes"/>
      <point x="137" y="645"/>
      <point x="177" y="605"/>
    </contour>
  </outline>
</glyph>
<glyph name="uni1FED" format="2">
  <advance width="504"/>
  <unicode hex="1FED"/>
  <outline>
    <contour>
      <point x="243" y="617" type="curve"/>
      <point x="303" y="617" type="line"/>
      <point x="303" y="630" type="line"/>
      <point x="296" y="667"/>
      <point x="289" y="731"/>
      <point x="289" y="772" type="curve"/>
      <point x="181" y="772" type="line"/>
      <point x="181" y="762" type="line"/>
      <point x="194" y="719"/>
      <point x="217" y="665"/>
    </contour>
    <contour>
      <point x="74" y="672" type="curve" smooth="yes"/>
      <point x="74" y="629"/>
      <point x="95" y="608"/>
      <point x="130" y="608" type="curve" smooth="yes"/>
      <point x="161" y="608"/>
      <point x="184" y="629"/>
      <point x="184" y="672" type="curve" smooth="yes"/>
      <point x="184" y="717"/>
      <point x="161" y="737"/>
      <point x="130" y="737" type="curve" smooth="yes"/>
      <point x="95" y="737"/>
      <point x="74" y="717"/>
    </contour>
    <contour>
      <point x="319" y="672" type="curve" smooth="yes"/>
      <point x="319" y="629"/>
      <point x="340" y="608"/>
      <point x="374" y="608" type="curve" smooth="yes"/>
      <point x="408" y="608"/>
      <point x="431" y="629"/>
      <point x="431" y="672" type="curve" smooth="yes"/>
      <point x="431" y="717"/>
      <point x="408" y="737"/>
      <point x="374" y="737" type="curve" smooth="yes"/>
      <point x="340" y="737"/>
      <point x="319" y="717"/>
    </contour>
  </outline>
</glyph>
<glyph name="uni1FEE" format="2">
  <advance width="504"/>
  <unicode hex="1FEE"/>
  <outline>
    <contour>
      <point x="200" y="630" type="curve"/>
      <point x="200" y="617" type="line"/>
      <point x="260" y="617" type="line"/>
      <point x="285" y="665"/>
      <point x="308" y="719"/>
      <point x="322" y="762" type="curve"/>
      <point x="322" y="772" type="line"/>
      <point x="214" y="772" type="line"/>
      <point x="214" y="731"/>
      <point x="205" y="667"/>
    </contour>
    <contour>
      <point x="130" y="608" type="curve" smooth="yes"/>
      <point x="161" y="608"/>
      <point x="184" y="629"/>
      <point x="184" y="672" type="curve" smooth="yes"/>
      <point x="184" y="717"/>
      <point x="161" y="737"/>
      <point x="130" y="737" type="curve" smooth="yes"/>
      <point x="95" y="737"/>
      <point x="74" y="717"/>
      <point x="74" y="672" type="curve" smooth="yes"/>
      <point x="74" y="629"/>
      <point x="95" y="608"/>
    </contour>
    <contour>
      <point x="374" y="608" type="curve" smooth="yes"/>
      <point x="408" y="608"/>
      <point x="431" y="629"/>
      <point x="431" y="672" type="curve" smooth="yes"/>
      <point x="431" y="717"/>
      <point x="408" y="737"/>
      <point x="374" y="737" type="curve" smooth="yes"/>
      <point x="340" y="737"/>
      <point x="319" y="717"/>
      <point x="319" y="672" type="curve" smooth="yes"/>
      <point x="319" y="629"/>
      <point x="340" y="608"/>
    </contour>
  </outline>
</glyph>
<glyph name="uni1FEF" format="2">
  <advance width="552"/>
  <unicode hex="1FEF"/>
  <anchor x="267" y="547" name="_top"/>
  <anchor x="250" y="770" name="top"/>
  <outline>
    <contour>
      <point x="319" y="606" type="line"/>
      <point x="319" y="621" type="line"/>
      <point x="311" y="657"/>
      <point x="300" y="722"/>
      <point x="296" y="770" type="curve"/>
      <point x="176" y="770" type="line"/>
      <point x="176" y="758" type="line"/>
      <point x="195" y="708"/>
      <point x="219" y="652"/>
      <point x="246" y="606" type="curve"/>
    </contour>
  </outline>
</glyph>
<glyph name="uni1FFD" format="2">
  <advance width="549"/>
  <unicode hex="1FFD"/>
  <anchor x="271" y="547" name="_top"/>
  <anchor x="300" y="770" name="top"/>
  <outline>
    <contour>
      <point x="216" y="606" type="line"/>
      <point x="290" y="606" type="line"/>
      <point x="323" y="647"/>
      <point x="358" y="709"/>
      <point x="378" y="758" type="curve"/>
      <point x="378" y="770" type="line"/>
      <point x="258" y="770" type="line"/>
      <point x="252" y="724"/>
      <point x="231" y="657"/>
      <point x="216" y="622" type="curve"/>
    </contour>
  </outline>
</glyph>
<glyph name="uni1FFE" format="2">
  <advance width="238"/>
  <unicode hex="1FFE"/>
  <outline>
    <contour>
      <point x="179" y="600" type="curve"/>
      <point x="179" y="640" type="line"/>
      <point x="148" y="642"/>
      <point x="123" y="663"/>
      <point x="123" y="689" type="curve"/>
      <point x="157" y="689"/>
      <point x="171" y="707"/>
      <point x="171" y="738" type="curve" smooth="yes"/>
      <point x="171" y="771"/>
      <point x="152" y="788"/>
      <point x="119" y="788" type="curve" smooth="yes"/>
      <point x="83" y="788"/>
      <point x="58" y="760"/>
      <point x="58" y="715" type="curve" smooth="yes"/>
      <point x="58" y="647"/>
      <point x="97" y="602"/>
    </contour>
  </outline>
</glyph>
<glyph name="daggerdbl" format="2">
  <advance width="470"/>
  <unicode hex="2021"/>
  <outline>
    <contour>
      <point x="280" y="270" type="line"/>
      <point x="299" y="384" type="line"/>
      <point x="280" y="490" type="line"/>
      <point x="423" y="475" type="line"/>
      <point x="423" y="589" type="line"/>
      <point x="280" y="574" type="line"/>
      <point x="305" y="760" type="line"/>
      <point x="173" y="760" type="line"/>
      <point x="197" y="574" type="line"/>
      <point x="46" y="589" type="line"/>
      <point x="46" y="475" type="line"/>
      <point x="197" y="490" type="line"/>
      <point x="176" y="384" type="line"/>
      <point x="197" y="270" type="line"/>
      <point x="46" y="285" type="line"/>
      <point x="46" y="171" type="line"/>
      <point x="197" y="187" type="line"/>
      <point x="173" y="0" type="line"/>
      <point x="305" y="0" type="line"/>
      <point x="280" y="187" type="line"/>
      <point x="423" y="171" type="line"/>
      <point x="423" y="285" type="line"/>
    </contour>
  </outline>
</glyph>
<glyph name="plussuperior" format="2">
  <advance width="361"/>
  <unicode hex="207A"/>
  <outline>
    <contour>
      <point x="144" y="302" type="line"/>
      <point x="216" y="302" type="line"/>
      <point x="216" y="415" type="line"/>
      <point x="326" y="415" type="line"/>
      <point x="326" y="486" type="line"/>
      <point x="216" y="486" type="line"/>
      <point x="216" y="599" type="line"/>
      <point x="144" y="599" type="line"/>
      <point x="144" y="486" type="line"/>
      <point x="34" y="486" type="line"/>
      <point x="34" y="415" type="line"/>
      <point x="144" y="415" type="line"/>
    </contour>
  </outline>
</glyph>
<glyph name="equalsuperior" format="2">
  <advance width="361"/>
  <unicode hex="207C"/>
  <outline>
    <contour>
      <point x="34" y="479" type="line"/>
      <point x="327" y="479" type="line"/>
      <point x="327" y="551" type="line"/>
      <point x="34" y="551" type="line"/>
    </contour>
    <contour>
      <point x="34" y="349" type="line"/>
      <point x="327" y="349" type="line"/>
      <point x="327" y="421" type="line"/>
      <point x="34" y="421" type="line"/>
    </contour>
  </outline>
</glyph>
<glyph name="parenleftsuperior" format="2">
  <advance width="237"/>
  <unicode hex="207D"/>
  <outline>
    <contour>
      <point x="36" y="498" type="curve" smooth="yes"/>
      <point x="36" y="391"/>
      <point x="62" y="291"/>
      <point x="123" y="220" type="curve"/>
      <point x="209" y="220" type="line"/>
      <point x="152" y="296"/>
      <point x="126" y="400"/>
      <point x="126" y="499" type="curve" smooth="yes"/>
      <point x="126" y="599"/>
      <point x="152" y="701"/>
      <point x="210" y="778" type="curve"/>
      <point x="123" y="778" type="line"/>
      <point x="62" y="704"/>
      <point x="36" y="605"/>
    </contour>
  </outline>
</glyph>
<glyph name="parenrightsuperior" format="2">
  <advance width="237"/>
  <unicode hex="207E"/>
  <outline>
    <contour>
      <point x="201" y="501" type="curve" smooth="yes"/>
      <point x="201" y="605"/>
      <point x="176" y="706"/>
      <point x="114" y="778" type="curve"/>
      <point x="28" y="778" type="line"/>
      <point x="85" y="703"/>
      <point x="111" y="600"/>
      <point x="111" y="501" type="curve" smooth="yes"/>
      <point x="111" y="401"/>
      <point x="86" y="298"/>
      <point x="27" y="220" type="curve"/>
      <point x="114" y="220" type="line"/>
      <point x="176" y="295"/>
      <point x="201" y="394"/>
    </contour>
  </outline>
</glyph>
<glyph name="uni20A5" format="2">
  <advance width="747"/>
  <unicode hex="20A5"/>
  <anchor x="366" y="0" name="bottom"/>
  <anchor x="380" y="547" name="top"/>
  <anchor x="700" y="547" name="topright"/>
  <outline>
    <contour>
      <point x="560" y="666" type="line"/>
      <point x="475" y="666" type="line"/>
      <point x="220" y="-110" type="line"/>
      <point x="306" y="-110" type="line"/>
    </contour>
    <component base="m"/>
  </outline>
</glyph>
<glyph name="uni20A9" format="2">
  <advance width="637"/>
  <unicode hex="20A9"/>
  <outline>
    <contour>
      <point x="99" y="0" type="line"/>
      <point x="237" y="0" type="line"/>
      <point x="274" y="260" type="line"/>
      <point x="355" y="260" type="line"/>
      <point x="396" y="0" type="line"/>
      <point x="530" y="0" type="line"/>
      <point x="567" y="260" type="line"/>
      <point x="636" y="260" type="line"/>
      <point x="636" y="327" type="line"/>
      <point x="577" y="327" type="line"/>
      <point x="586" y="396" type="line"/>
      <point x="636" y="396" type="line"/>
      <point x="636" y="463" type="line"/>
      <point x="596" y="463" type="line"/>
      <point x="632" y="714" type="line"/>
      <point x="511" y="714" type="line"/>
      <point x="487" y="463" type="line"/>
      <point x="408" y="463" type="line"/>
      <point x="371" y="714" type="line"/>
      <point x="258" y="714" type="line"/>
      <point x="219" y="463" type="line"/>
      <point x="147" y="463" type="line"/>
      <point x="126" y="714" type="line"/>
      <point x="5" y="714" type="line"/>
      <point x="38" y="463" type="line"/>
      <point x="1" y="463" type="line"/>
      <point x="1" y="396" type="line"/>
      <point x="47" y="396" type="line"/>
      <point x="56" y="327" type="line"/>
      <point x="1" y="327" type="line"/>
      <point x="1" y="260" type="line"/>
      <point x="65" y="260" type="line"/>
    </contour>
    <contour>
      <point x="174" y="148" type="line"/>
      <point x="164" y="260" type="line"/>
      <point x="190" y="260" type="line"/>
    </contour>
    <contour>
      <point x="457" y="148" type="line"/>
      <point x="441" y="260" type="line"/>
      <point x="468" y="260" type="line"/>
    </contour>
    <contour>
      <point x="302" y="463" type="line"/>
      <point x="313" y="555" type="line"/>
      <point x="324" y="463" type="line"/>
    </contour>
    <contour>
      <point x="159" y="327" type="line"/>
      <point x="153" y="396" type="line"/>
      <point x="210" y="396" type="line"/>
      <point x="200" y="327" type="line"/>
    </contour>
    <contour>
      <point x="283" y="327" type="line"/>
      <point x="292" y="396" type="line"/>
      <point x="335" y="396" type="line"/>
      <point x="344" y="327" type="line"/>
    </contour>
    <contour>
      <point x="430" y="327" type="line"/>
      <point x="421" y="396" type="line"/>
      <point x="481" y="396" type="line"/>
      <point x="474" y="327" type="line"/>
    </contour>
  </outline>
</glyph>
<glyph name="versicle" format="2">
  <advance width="513"/>
  <unicode hex="2123"/>
  <anchor x="250" y="0" name="bottom"/>
  <anchor x="254" y="714" name="top"/>
  <anchor x="485" y="714" name="topright"/>
  <outline>
    <contour>
      <point x="280" y="763" type="line"/>
      <point x="66" y="-145" type="line"/>
      <point x="127.993" y="-145" type="line"/>
      <point x="352.993" y="805" type="line"/>
      <point x="126" y="863" type="line"/>
      <point x="110" y="802" type="line"/>
    </contour>
    <component base="V"/>
  </outline>
</glyph>
<glyph name="uni2C66" format="2">
  <advance width="317"/>
  <unicode hex="2C66"/>
  <anchor x="186" y="-208" name="bottom"/>
  <anchor x="137" y="760" name="top"/>
  <anchor x="137" y="274" name="center"/>
  <anchor x="289" y="662" name="topright"/>
  <outline>
    <contour>
      <point x="85" y="-208" type="line"/>
      <point x="317" y="760" type="line"/>
      <point x="263" y="760" type="line"/>
      <point x="31" y="-208" type="line"/>
    </contour>
    <component base="t"/>
  </outline>
</glyph>
<glyph name="uni2C6A" format="2">
  <advance width="502"/>
  <unicode hex="2C6A"/>
  <anchor x="246" y="-197" name="bottom"/>
  <anchor x="118" y="760" name="top"/>
  <anchor x="461" y="760" name="topright"/>
  <outline>
    <contour>
      <point x="492" y="110" type="line"/>
      <point x="401" y="110" type="line"/>
      <point x="365" y="14" type="line"/>
      <point x="365" y="-197" type="line"/>
      <point x="492" y="-197" type="line"/>
    </contour>
    <component base="k"/>
  </outline>
</glyph>
<glyph name="uni2C75" format="2">
  <advance width="353"/>
  <unicode hex="2C75"/>
  <anchor x="177" y="0" name="bottom"/>
  <anchor x="177" y="714" name="top"/>
  <outline>
    <contour>
      <point x="61" y="0" type="line"/>
      <point x="199" y="0" type="line"/>
      <point x="199" y="312" type="line"/>
      <point x="333" y="312" type="line"/>
      <point x="333" y="431" type="line"/>
      <point x="199" y="431" type="line"/>
      <point x="199" y="714" type="line"/>
      <point x="61" y="714" type="line"/>
    </contour>
  </outline>
</glyph>
<glyph name="uni2E4D" format="2">
  <advance width="412"/>
  <unicode hex="2E4D"/>
  <anchor x="206" y="0" name="bottom"/>
  <anchor x="237" y="714" name="top"/>
  <outline>
    <contour>
      <point x="139" y="363" type="line"/>
      <point x="377" y="601" type="line"/>
      <point x="328" y="650" type="line"/>
      <point x="89" y="411" type="line"/>
    </contour>
    <component base="afii10020"/>
  </outline>
</glyph>
<glyph name="uni2E4F" format="2">
  <advance width="262"/>
  <unicode hex="2E4F"/>
  <outline>
    <contour>
      <point x="58" y="407" type="curve" smooth="yes"/>
      <point x="92" y="407"/>
      <point x="107" y="426"/>
      <point x="107" y="463" type="curve" smooth="yes"/>
      <point x="107" y="500"/>
      <point x="91" y="518"/>
      <point x="58" y="518" type="curve" smooth="yes"/>
      <point x="24" y="518"/>
      <point x="8" y="500"/>
      <point x="8" y="463" type="curve" smooth="yes"/>
      <point x="8" y="426"/>
      <point x="23" y="407"/>
    </contour>
    <contour>
      <point x="200" y="25" type="curve" smooth="yes"/>
      <point x="234" y="25"/>
      <point x="249" y="43"/>
      <point x="249" y="80" type="curve" smooth="yes"/>
      <point x="249" y="117"/>
      <point x="233" y="135"/>
      <point x="200" y="135" type="curve" smooth="yes"/>
      <point x="166" y="135"/>
      <point x="150" y="117"/>
      <point x="150" y="80" type="curve" smooth="yes"/>
      <point x="150" y="43"/>
      <point x="165" y="25"/>
    </contour>
    <component base="uni2E17"/>
  </outline>
</glyph>
<glyph name="uniA662" format="2">
  <advance width="713"/>
  <unicode hex="A662"/>
  <anchor x="295" y="-211" name="bottom"/>
  <anchor x="295" y="714" name="top"/>
  <outline>
    <contour>
      <point x="701" y="714" type="line"/>
      <point x="365" y="714" type="line"/>
      <point x="365" y="0" type="line"/>
      <point x="502" y="0" type="line"/>
      <point x="502" y="595" type="line"/>
      <point x="701" y="595" type="line"/>
    </contour>
    <component base="afii10021"/>
  </outline>
</glyph>
<glyph name="uniA663" format="2">
  <advance width="626"/>
  <unicode hex="A663"/>
  <anchor x="262" y="-197" name="bottom"/>
  <anchor x="272" y="547" name="top"/>
  <outline>
    <contour>
      <point x="614" y="547" type="line"/>
      <point x="320" y="547" type="line"/>
      <point x="320" y="0" type="line"/>
      <point x="450" y="0" type="line"/>
      <point x="450" y="437" type="line"/>
      <point x="614" y="437" type="line"/>
    </contour>
    <component base="afii10069"/>
  </outline>
</glyph>
<glyph name="uniA665" format="2">
  <advance width="614"/>
  <unicode hex="A665"/>
  <anchor x="245" y="0" name="bottom"/>
  <anchor x="245" y="547" name="top"/>
  <outline>
    <contour>
      <point x="602" y="547" type="line"/>
      <point x="308" y="547" type="line"/>
      <point x="308" y="0" type="line"/>
      <point x="438" y="0" type="line"/>
      <point x="438" y="431" type="line"/>
      <point x="602" y="431" type="line"/>
    </contour>
    <component base="afii10077"/>
  </outline>
</glyph>
<glyph name="uniA666" format="2">
  <advance width="903"/>
  <unicode hex="A666"/>
  <anchor x="377" y="0" name="bottom"/>
  <anchor x="378" y="714" name="top"/>
  <anchor x="734" y="714" name="topright"/>
  <outline>
    <contour>
      <point x="891" y="714" type="line"/>
      <point x="611" y="714" type="line"/>
      <point x="691" y="595" type="line"/>
      <point x="891" y="595" type="line"/>
    </contour>
    <component base="M"/>
  </outline>
</glyph>
<glyph name="uniA667" format="2">
  <advance width="768"/>
  <unicode hex="A667"/>
  <anchor x="317" y="0" name="bottom"/>
  <anchor x="317" y="547" name="top"/>
  <outline>
    <contour>
      <point x="745" y="547" type="line"/>
      <point x="529" y="547" type="line"/>
      <point x="582" y="437" type="line"/>
      <point x="745" y="437" type="line"/>
    </contour>
    <component base="afii10078"/>
  </outline>
</glyph>
<glyph name="uniA672" format="2">
  <unicode hex="A672"/>
  <outline>
    <contour>
      <point x="-566" y="420" type="line"/>
      <point x="-300" y="420" type="line"/>
      <point x="-300" y="491" type="line"/>
      <point x="-566" y="491" type="line"/>
    </contour>
    <contour>
      <point x="-566" y="50" type="line"/>
      <point x="-300" y="50" type="line"/>
      <point x="-300" y="121" type="line"/>
      <point x="-566" y="121" type="line"/>
    </contour>
    <contour>
      <point x="-566" y="235" type="line"/>
      <point x="-300" y="235" type="line"/>
      <point x="-300" y="306" type="line"/>
      <point x="-566" y="306" type="line"/>
    </contour>
    <contour>
      <point x="147" y="-53" type="line"/>
      <point x="147" y="-319" type="line"/>
      <point x="218" y="-319" type="line"/>
      <point x="218" y="-53" type="line"/>
    </contour>
    <contour>
      <point x="-222" y="-53" type="line"/>
      <point x="-222" y="-319" type="line"/>
      <point x="-151" y="-319" type="line"/>
      <point x="-151" y="-53" type="line"/>
    </contour>
    <contour>
      <point x="-38" y="-53" type="line"/>
      <point x="-38" y="-319" type="line"/>
      <point x="33" y="-319" type="line"/>
      <point x="33" y="-53" type="line"/>
    </contour>
    <contour>
      <point x="293" y="420" type="line"/>
      <point x="559" y="420" type="line"/>
      <point x="559" y="491" type="line"/>
      <point x="293" y="491" type="line"/>
    </contour>
    <contour>
      <point x="293" y="50" type="line"/>
      <point x="559" y="50" type="line"/>
      <point x="559" y="121" type="line"/>
      <point x="293" y="121" type="line"/>
    </contour>
    <contour>
      <point x="293" y="235" type="line"/>
      <point x="559" y="235" type="line"/>
      <point x="559" y="306" type="line"/>
      <point x="293" y="306" type="line"/>
    </contour>
    <contour>
      <point x="32" y="778" type="line"/>
      <point x="32" y="903" type="line"/>
      <point x="-41" y="903" type="line"/>
      <point x="-41" y="778" type="line"/>
      <point x="-138" y="778" type="line"/>
      <point x="-138" y="707" type="line"/>
      <point x="-41" y="707" type="line"/>
      <point x="-41" y="583" type="line"/>
      <point x="32" y="583" type="line"/>
      <point x="32" y="707" type="line"/>
      <point x="128" y="707" type="line"/>
      <point x="128" y="778" type="line"/>
    </contour>
  </outline>
</glyph>
<glyph name="uniA680" format="2">
  <advance width="599"/>
  <unicode hex="A680"/>
  <anchor x="295" y="-211" name="bottom"/>
  <anchor x="295" y="714" name="top"/>
  <outline>
    <contour>
      <point x="157" y="920" type="line"/>
      <point x="157" y="650" type="line"/>
      <point x="283" y="650" type="line"/>
      <point x="283" y="920" type="line"/>
    </contour>
    <component base="afii10021"/>
  </outline>
</glyph>
<glyph name="uniA681" format="2">
  <advance width="524"/>
  <unicode hex="A681"/>
  <anchor x="262" y="-197" name="bottom"/>
  <anchor x="272" y="547" name="top"/>
  <outline>
    <contour>
      <point x="137" y="739" type="line"/>
      <point x="137" y="477" type="line"/>
      <point x="254" y="477" type="line"/>
      <point x="254" y="739" type="line"/>
    </contour>
    <component base="afii10069"/>
  </outline>
</glyph>
<glyph name="uniA684" format="2">
  <advance width="965"/>
  <unicode hex="A684"/>
  <anchor x="207" y="0" name="bottom_1"/>
  <anchor x="729" y="0" name="bottom_2"/>
  <anchor x="213" y="714" name="top_1"/>
  <anchor x="735" y="714" name="top_2"/>
  <outline>
    <contour>
      <point x="270" y="427" type="line"/>
      <point x="270" y="317" type="line"/>
      <point x="548" y="317" type="line"/>
      <point x="548" y="427" type="line"/>
    </contour>
    <component base="afii10025"/>
    <component base="afii10028" xOffset="465"/>
  </outline>
</glyph>
<glyph name="uniA685" format="2">
  <advance width="862"/>
  <unicode hex="A685"/>
  <anchor x="180" y="0" name="bottom_1"/>
  <anchor x="629" y="0" name="bottom_2"/>
  <anchor x="187" y="547" name="top_1"/>
  <anchor x="643" y="547" name="top_2"/>
  <outline>
    <contour>
      <point x="263" y="328" type="line"/>
      <point x="263" y="240" type="line"/>
      <point x="470" y="240" type="line"/>
      <point x="470" y="328" type="line"/>
    </contour>
    <component base="afii10073"/>
    <component base="afii10076" xOffset="394"/>
  </outline>
</glyph>
<glyph name="uniA68D" format="2">
  <advance width="393"/>
  <unicode hex="A68D"/>
  <outline>
    <contour>
      <point x="132" y="156" type="line" smooth="yes"/>
      <point x="132" y="40"/>
      <point x="184" y="-10"/>
      <point x="266" y="-10" type="curve" smooth="yes"/>
      <point x="300" y="-10"/>
      <point x="334" y="-5"/>
      <point x="350" y="1" type="curve"/>
      <point x="350" y="113" type="line"/>
      <point x="335" y="107"/>
      <point x="321" y="104"/>
      <point x="308" y="104" type="curve" smooth="yes"/>
      <point x="277" y="104"/>
      <point x="263" y="128"/>
      <point x="263" y="170" type="curve" smooth="yes"/>
      <point x="263" y="437" type="line"/>
      <point x="380" y="437" type="line"/>
      <point x="380" y="547" type="line"/>
      <point x="13" y="547" type="line"/>
      <point x="13" y="437" type="line"/>
      <point x="132" y="437" type="line"/>
    </contour>
  </outline>
</glyph>
<glyph name="uniA69A" format="2">
  <advance width="593"/>
  <unicode hex="A69A"/>
  <anchor x="304" y="0" name="bottom"/>
  <anchor x="304" y="725" name="top"/>
  <outline>
    <contour>
      <point x="257" y="672" type="line"/>
      <point x="257" y="26" type="line"/>
      <point x="333" y="26" type="line"/>
      <point x="333" y="672" type="line"/>
    </contour>
    <component base="uni04E8"/>
  </outline>
</glyph>
<glyph name="uniA69E" format="2">
  <unicode hex="A69E"/>
  <outline>
    <contour>
      <point x="40" y="760" type="line"/>
      <point x="-41" y="760" type="line"/>
      <point x="-41" y="626" type="line"/>
      <point x="-145" y="616"/>
      <point x="-190" y="548"/>
      <point x="-190" y="448" type="curve" smooth="yes"/>
      <point x="-190" y="351"/>
      <point x="-138" y="282"/>
      <point x="-39" y="271" type="curve"/>
      <point x="-39" y="121" type="line"/>
      <point x="40" y="121" type="line"/>
      <point x="40" y="271" type="line"/>
      <point x="143" y="281"/>
      <point x="190" y="351"/>
      <point x="190" y="448" type="curve" smooth="yes"/>
      <point x="190" y="545"/>
      <point x="140" y="614"/>
      <point x="40" y="626" type="curve"/>
    </contour>
    <contour>
      <point x="-41" y="555" type="curve"/>
      <point x="-41" y="341" type="line"/>
      <point x="-74" y="345"/>
      <point x="-97" y="387"/>
      <point x="-97" y="448" type="curve" smooth="yes"/>
      <point x="-97" y="509"/>
      <point x="-72" y="550"/>
    </contour>
    <contour>
      <point x="40" y="555" type="line"/>
      <point x="72" y="550"/>
      <point x="98" y="509"/>
      <point x="98" y="448" type="curve" smooth="yes"/>
      <point x="98" y="387"/>
      <point x="74" y="345"/>
      <point x="40" y="341" type="curve"/>
    </contour>
  </outline>
</glyph>
<glyph name="uniA741" format="2">
  <advance width="466"/>
  <unicode hex="A741"/>
  <anchor x="251" y="0" name="bottom"/>
  <anchor x="121" y="760" name="top"/>
  <anchor x="461" y="760" name="topright"/>
  <outline>
    <contour>
      <point x="304" y="687" type="line"/>
      <point x="4" y="687" type="line"/>
      <point x="4" y="593" type="line"/>
      <point x="304" y="593" type="line"/>
    </contour>
    <component base="k"/>
  </outline>
</glyph>
<glyph name="uniA745" format="2">
  <advance width="466"/>
  <unicode hex="A745"/>
  <anchor x="251" y="0" name="bottom"/>
  <anchor x="121" y="760" name="top"/>
  <anchor x="341" y="860" name="topright"/>
  <outline>
    <contour>
      <point x="214" y="110" type="line"/>
      <point x="247" y="52" type="line"/>
      <point x="470" y="180" type="line"/>
      <point x="437" y="237" type="line"/>
    </contour>
    <component base="uniA741"/>
  </outline>
</glyph>
<glyph name="uniA748" format="2">
  <advance width="396"/>
  <unicode hex="A748"/>
  <anchor x="223" y="0" name="bottom"/>
  <anchor x="198" y="357" name="center"/>
  <anchor x="131" y="714" name="top"/>
  <anchor x="269" y="714" name="topright"/>
  <outline>
    <contour>
      <point x="10" y="532" type="line"/>
      <point x="290" y="532" type="line"/>
      <point x="290" y="629" type="line"/>
      <point x="10" y="629" type="line"/>
    </contour>
    <component base="L"/>
  </outline>
</glyph>
<glyph name="uniA749" format="2">
  <advance width="238"/>
  <unicode hex="A749"/>
  <anchor x="119" y="0" name="bottom"/>
  <anchor x="119" y="274" name="center"/>
  <anchor x="119" y="760" name="top"/>
  <anchor x="206" y="760" name="topright"/>
  <outline>
    <contour>
      <point x="233" y="667" type="line"/>
      <point x="4" y="667" type="line"/>
      <point x="4" y="571" type="line"/>
      <point x="233" y="571" type="line"/>
    </contour>
    <component base="l"/>
  </outline>
</glyph>
<glyph name="uniA74B" format="2">
  <advance width="477"/>
  <unicode hex="A74B"/>
  <anchor x="245" y="0" name="bottom"/>
  <anchor x="245" y="274" name="center"/>
  <anchor x="245" y="547" name="top"/>
  <anchor x="465" y="547" name="topright"/>
  <outline>
    <contour>
      <point x="0" y="229" type="line"/>
      <point x="492" y="229" type="line"/>
      <point x="492" y="325" type="line"/>
      <point x="0" y="325" type="line"/>
    </contour>
    <component base="o" xOffset="7"/>
  </outline>
</glyph>
<glyph name="uniA751" format="2">
  <advance width="488"/>
  <unicode hex="A751"/>
  <anchor x="118" y="-240" name="bottom"/>
  <anchor x="268" y="547" name="top"/>
  <anchor x="469" y="547" name="topright"/>
  <outline>
    <contour>
      <point x="1" y="-170" type="line"/>
      <point x="339" y="-170" type="line"/>
      <point x="339" y="-74" type="line"/>
      <point x="1" y="-74" type="line"/>
    </contour>
    <component base="p"/>
  </outline>
</glyph>
<glyph name="uniA752" format="2">
  <advance width="592"/>
  <unicode hex="A752"/>
  <anchor x="351" y="0" name="bottom"/>
  <anchor x="367" y="714" name="top"/>
  <anchor x="572" y="714" name="topright"/>
  <outline>
    <contour>
      <point x="300" y="254" type="line"/>
      <point x="300" y="370" type="line"/>
      <point x="184" y="370" type="line"/>
      <point x="45" y="370"/>
      <point x="4" y="302"/>
      <point x="4" y="209" type="curve" smooth="yes"/>
      <point x="4" y="183"/>
      <point x="11" y="162"/>
      <point x="16" y="151" type="curve"/>
      <point x="131" y="151" type="line"/>
      <point x="127" y="161"/>
      <point x="121" y="176"/>
      <point x="121" y="199" type="curve" smooth="yes"/>
      <point x="121" y="229"/>
      <point x="139" y="254"/>
      <point x="180" y="254" type="curve" smooth="yes"/>
    </contour>
    <component base="P" xOffset="112"/>
  </outline>
</glyph>
<glyph name="uniA757" format="2">
  <advance width="488"/>
  <unicode hex="A757"/>
  <anchor x="369" y="-240" name="bottom"/>
  <anchor x="244" y="547" name="top"/>
  <anchor x="456" y="547" name="topright"/>
  <outline>
    <contour>
      <point x="161" y="-170" type="line"/>
      <point x="499" y="-170" type="line"/>
      <point x="499" y="-74" type="line"/>
      <point x="161" y="-74" type="line"/>
    </contour>
    <component base="q"/>
  </outline>
</glyph>
<glyph name="uniA75C" format="2">
  <advance width="597"/>
  <unicode hex="A75C"/>
  <outline>
    <contour>
      <point x="586" y="128" type="line"/>
      <point x="586" y="246" type="line"/>
      <point x="228" y="246" type="line"/>
      <point x="228" y="255" type="line"/>
      <point x="281" y="310" type="line"/>
      <point x="357" y="379"/>
      <point x="394" y="454"/>
      <point x="394" y="545" type="curve" smooth="yes"/>
      <point x="394" y="652"/>
      <point x="332" y="725"/>
      <point x="223" y="725" type="curve" smooth="yes"/>
      <point x="146" y="725"/>
      <point x="79" y="691"/>
      <point x="26" y="628" type="curve"/>
      <point x="91" y="536" type="line"/>
      <point x="130" y="583"/>
      <point x="168" y="606"/>
      <point x="207" y="606" type="curve" smooth="yes"/>
      <point x="238" y="606"/>
      <point x="259" y="575"/>
      <point x="259" y="537" type="curve" smooth="yes"/>
      <point x="259" y="469"/>
      <point x="230" y="424"/>
      <point x="155" y="351" type="curve" smooth="yes"/>
      <point x="33" y="233" type="line"/>
      <point x="33" y="128" type="line"/>
    </contour>
    <contour>
      <point x="517" y="0" type="line"/>
      <point x="517" y="349" type="line"/>
      <point x="381" y="349" type="line"/>
      <point x="381" y="0" type="line"/>
    </contour>
  </outline>
</glyph>
<glyph name="uniA75F" format="2">
  <advance width="438"/>
  <unicode hex="A75F"/>
  <anchor x="219" y="0" name="bottom"/>
  <anchor x="220" y="547" name="top"/>
  <anchor x="418" y="547" name="topright"/>
  <outline>
    <contour>
      <point x="233" y="639" type="line"/>
      <point x="72" y="-93" type="line"/>
      <point x="117" y="-93" type="line"/>
      <point x="281" y="639" type="line"/>
    </contour>
    <component base="v"/>
  </outline>
</glyph>
<glyph name="uniA764" format="2">
  <advance width="464"/>
  <unicode hex="A764"/>
  <outline>
    <contour>
      <point x="240" y="526" type="curve" smooth="yes"/>
      <point x="199" y="526" type="line"/>
      <point x="199" y="575" type="line"/>
      <point x="283" y="575" type="line"/>
      <point x="283" y="671" type="line"/>
      <point x="199" y="671" type="line"/>
      <point x="199" y="714" type="line"/>
      <point x="62" y="714" type="line"/>
      <point x="62" y="671" type="line"/>
      <point x="8" y="671" type="line"/>
      <point x="8" y="575" type="line"/>
      <point x="62" y="575" type="line"/>
      <point x="62" y="0" type="line"/>
      <point x="199" y="0" type="line"/>
      <point x="199" y="98" type="line"/>
      <point x="237" y="98" type="line" smooth="yes"/>
      <point x="382" y="98"/>
      <point x="444" y="192"/>
      <point x="444" y="322" type="curve" smooth="yes"/>
      <point x="444" y="456"/>
      <point x="377" y="526"/>
    </contour>
    <contour>
      <point x="223" y="210" type="curve" smooth="yes"/>
      <point x="199" y="210" type="line"/>
      <point x="199" y="412" type="line"/>
      <point x="232" y="412" type="line" smooth="yes"/>
      <point x="283" y="412"/>
      <point x="307" y="383"/>
      <point x="307" y="319" type="curve" smooth="yes"/>
      <point x="307" y="243"/>
      <point x="280" y="210"/>
    </contour>
  </outline>
</glyph>
<glyph name="uniA765" format="2">
  <advance width="488"/>
  <unicode hex="A765"/>
  <anchor x="244" y="-240" name="bottom"/>
  <anchor x="244" y="760" name="top"/>
  <outline>
    <contour>
      <point x="339" y="700" type="line"/>
      <point x="1" y="700" type="line"/>
      <point x="1" y="604" type="line"/>
      <point x="339" y="604" type="line"/>
    </contour>
    <component base="thorn"/>
  </outline>
</glyph>
<glyph name="uniA768" format="2">
  <advance width="514"/>
  <unicode hex="A768"/>
  <outline>
    <contour>
      <point x="230" y="-138" type="line"/>
      <point x="230" y="0" type="line"/>
      <point x="515" y="714" type="line"/>
      <point x="365" y="714" type="line"/>
      <point x="286" y="463" type="line" smooth="yes"/>
      <point x="268" y="404"/>
      <point x="241" y="321"/>
      <point x="229" y="269" type="curve"/>
      <point x="223" y="269" type="line"/>
      <point x="227" y="310"/>
      <point x="230" y="391"/>
      <point x="230" y="432" type="curve" smooth="yes"/>
      <point x="230" y="612" type="line"/>
      <point x="287" y="640" type="line"/>
      <point x="287" y="714" type="line"/>
      <point x="28" y="714" type="line"/>
      <point x="28" y="640" type="line"/>
      <point x="92" y="612" type="line"/>
      <point x="92" y="-138" type="line"/>
      <point x="28" y="-166" type="line"/>
      <point x="28" y="-240" type="line"/>
      <point x="294" y="-240" type="line"/>
      <point x="294" y="-166" type="line"/>
    </contour>
  </outline>
</glyph>
<glyph name="uniA771" format="2">
  <advance width="677"/>
  <unicode hex="A771"/>
  <anchor x="240" y="0" name="bottom"/>
  <anchor x="244" y="274" name="center"/>
  <anchor x="224" y="760" name="top"/>
  <anchor x="456" y="760" name="topright"/>
  <outline>
    <contour>
      <point x="428" y="0" type="line"/>
      <point x="671" y="0" type="line"/>
      <point x="671" y="110" type="line"/>
      <point x="428" y="110" type="line"/>
    </contour>
    <contour>
      <point x="555" y="272" type="line"/>
      <point x="423" y="-157" type="line"/>
      <point x="515" y="-157" type="line"/>
      <point x="646" y="272" type="line"/>
    </contour>
    <component base="d"/>
  </outline>
</glyph>
<glyph name="uniA772" format="2">
  <advance width="426"/>
  <unicode hex="A772"/>
  <anchor x="119" y="0" name="bottom"/>
  <anchor x="119" y="274" name="center"/>
  <anchor x="119" y="760" name="top"/>
  <anchor x="206" y="760" name="topright"/>
  <outline>
    <contour>
      <point x="178" y="0" type="line"/>
      <point x="421" y="0" type="line"/>
      <point x="421" y="110" type="line"/>
      <point x="178" y="110" type="line"/>
    </contour>
    <contour>
      <point x="304" y="272" type="line"/>
      <point x="172" y="-157" type="line"/>
      <point x="264" y="-157" type="line"/>
      <point x="395" y="272" type="line"/>
    </contour>
    <component base="l"/>
  </outline>
</glyph>
<glyph name="uniA773" format="2">
  <advance width="920"/>
  <unicode hex="A773"/>
  <anchor x="366" y="0" name="bottom"/>
  <anchor x="380" y="547" name="top"/>
  <anchor x="700" y="547" name="topright"/>
  <outline>
    <contour>
      <point x="672" y="0" type="line"/>
      <point x="915" y="0" type="line"/>
      <point x="915" y="110" type="line"/>
      <point x="672" y="110" type="line"/>
    </contour>
    <contour>
      <point x="798" y="272" type="line"/>
      <point x="666" y="-157" type="line"/>
      <point x="758" y="-157" type="line"/>
      <point x="889" y="272" type="line"/>
    </contour>
    <component base="m"/>
  </outline>
</glyph>
<glyph name="uniA774" format="2">
  <advance width="680"/>
  <unicode hex="A774"/>
  <anchor x="245" y="0" name="bottom"/>
  <anchor x="254" y="547" name="top"/>
  <anchor x="458" y="547" name="topright"/>
  <outline>
    <contour>
      <point x="431" y="0" type="line"/>
      <point x="674" y="0" type="line"/>
      <point x="674" y="110" type="line"/>
      <point x="431" y="110" type="line"/>
    </contour>
    <contour>
      <point x="558" y="272" type="line"/>
      <point x="426" y="-157" type="line"/>
      <point x="518" y="-157" type="line"/>
      <point x="649" y="272" type="line"/>
    </contour>
    <component base="n"/>
  </outline>
</glyph>
<glyph name="uniA776" format="2">
  <advance width="627"/>
  <unicode hex="A776"/>
  <anchor x="219" y="0" name="bottom"/>
  <anchor x="219" y="547" name="top"/>
  <outline>
    <contour>
      <point x="378" y="0" type="line"/>
      <point x="621" y="0" type="line"/>
      <point x="621" y="110" type="line"/>
      <point x="378" y="110" type="line"/>
    </contour>
    <contour>
      <point x="505" y="272" type="line"/>
      <point x="373" y="-157" type="line"/>
      <point x="465" y="-157" type="line"/>
      <point x="596" y="272" type="line"/>
    </contour>
    <component base="uni0280"/>
  </outline>
</glyph>
<glyph name="uniA793" format="2">
  <advance width="391"/>
  <unicode hex="A793"/>
  <anchor x="250" y="0" name="bottom"/>
  <anchor x="242" y="547" name="top"/>
  <anchor x="381" y="547" name="topright"/>
  <outline>
    <contour>
      <point x="0" y="231" type="line"/>
      <point x="340" y="231" type="line"/>
      <point x="340" y="327" type="line"/>
      <point x="0" y="327" type="line"/>
    </contour>
    <component base="c" xOffset="10"/>
  </outline>
</glyph>
<glyph name="uniA796" format="2">
  <advance width="625"/>
  <unicode hex="A796"/>
  <anchor x="372" y="0" name="bottom"/>
  <anchor x="371" y="714" name="top"/>
  <anchor x="605" y="714" name="topright"/>
  <outline>
    <contour>
      <point x="16" y="211" type="curve"/>
      <point x="114" y="211" type="line"/>
      <point x="111" y="220"/>
      <point x="106" y="241"/>
      <point x="106" y="263" type="curve" smooth="yes"/>
      <point x="106" y="297"/>
      <point x="123" y="321"/>
      <point x="160" y="321" type="curve" smooth="yes"/>
      <point x="185" y="321" type="line"/>
      <point x="185" y="425" type="line"/>
      <point x="161" y="425" type="line" smooth="yes"/>
      <point x="50" y="425"/>
      <point x="7" y="353"/>
      <point x="7" y="275" type="curve" smooth="yes"/>
      <point x="7" y="249"/>
      <point x="13" y="223"/>
    </contour>
    <component base="B" xOffset="109"/>
  </outline>
</glyph>
<glyph name="uniA799" format="2">
  <advance width="294"/>
  <unicode hex="A799"/>
  <anchor x="134" y="0" name="bottom"/>
  <anchor x="191" y="765" name="top"/>
  <anchor x="308" y="765" name="topright"/>
  <outline>
    <contour>
      <point x="287" y="336" type="line"/>
      <point x="9" y="336" type="line"/>
      <point x="9" y="247" type="line"/>
      <point x="287" y="247" type="line"/>
    </contour>
    <component base="f"/>
  </outline>
</glyph>
<glyph name="uniA7A3" format="2">
  <advance width="473"/>
  <unicode hex="A7A3"/>
  <anchor x="251" y="0" name="bottom"/>
  <anchor x="121" y="760" name="top"/>
  <anchor x="461" y="760" name="topright"/>
  <outline>
    <contour>
      <point x="7" y="257" type="line"/>
      <point x="7" y="161" type="line"/>
      <point x="467" y="296" type="line"/>
      <point x="467" y="393" type="line"/>
    </contour>
    <component base="k"/>
  </outline>
</glyph>
<glyph name="uniA7A7" format="2">
  <advance width="347"/>
  <unicode hex="A7A7"/>
  <anchor x="125" y="0" name="bottom"/>
  <anchor x="189" y="547" name="top"/>
  <anchor x="322" y="547" name="topright"/>
  <outline>
    <contour>
      <point x="3" y="244" type="line"/>
      <point x="3" y="148" type="line"/>
      <point x="344" y="242" type="line"/>
      <point x="344" y="338" type="line"/>
    </contour>
    <component base="r"/>
  </outline>
</glyph>
<glyph name="uniA7AE" format="2">
  <advance width="462"/>
  <unicode hex="A7AE"/>
  <anchor x="231" y="0" name="bottom"/>
  <anchor x="231" y="714" name="top"/>
  <outline>
    <contour>
      <point x="435" y="714" type="line"/>
      <point x="26" y="714" type="line"/>
      <point x="26" y="641" type="line"/>
      <point x="163" y="612" type="line"/>
      <point x="163" y="101" type="line"/>
      <point x="26" y="73" type="line"/>
      <point x="26" y="0" type="line"/>
      <point x="435" y="0" type="line"/>
      <point x="435" y="73" type="line"/>
      <point x="299" y="101" type="line"/>
      <point x="299" y="612" type="line"/>
      <point x="435" y="641" type="line"/>
    </contour>
  </outline>
</glyph>
<glyph name="uniA7B8" format="2">
  <advance width="549"/>
  <unicode hex="A7B8"/>
  <anchor x="274" y="0" name="bottom"/>
  <anchor x="275" y="714" name="top"/>
  <anchor x="530" y="714" name="topright"/>
  <outline>
    <contour>
      <point x="125" y="-55" type="line"/>
      <point x="537" y="719" type="line"/>
      <point x="470" y="755" type="line"/>
      <point x="57" y="-19" type="line"/>
    </contour>
    <component base="U"/>
  </outline>
</glyph>
<glyph name="uniA7B9" format="2">
  <advance width="489"/>
  <unicode hex="A7B9"/>
  <anchor x="240" y="0" name="bottom"/>
  <anchor x="245" y="547" name="top"/>
  <anchor x="457" y="547" name="topright"/>
  <outline>
    <contour>
      <point x="123" y="-64" type="line"/>
      <point x="463" y="557" type="line"/>
      <point x="399" y="593" type="line"/>
      <point x="58" y="-30" type="line"/>
    </contour>
    <component base="u"/>
  </outline>
</glyph>
<glyph name="uniA7C7" format="2">
  <advance width="546"/>
  <unicode hex="A7C7"/>
  <anchor x="254" y="0" name="bottom"/>
  <anchor x="270" y="360" name="center"/>
  <anchor x="269" y="714" name="top"/>
  <anchor x="527" y="714" name="topright"/>
  <outline>
    <contour>
      <point x="127" y="320" type="line"/>
      <point x="432" y="320" type="line"/>
      <point x="432" y="405" type="line"/>
      <point x="127" y="405" type="line"/>
    </contour>
    <component base="D"/>
  </outline>
</glyph>
<glyph name="uniA7C8" format="2">
  <advance width="488"/>
  <unicode hex="A7C8"/>
  <anchor x="240" y="0" name="bottom"/>
  <anchor x="244" y="274" name="center"/>
  <anchor x="224" y="760" name="top"/>
  <anchor x="456" y="760" name="topright"/>
  <outline>
    <contour>
      <point x="104" y="233" type="line"/>
      <point x="370" y="233" type="line"/>
      <point x="370" y="318" type="line"/>
      <point x="104" y="318" type="line"/>
    </contour>
    <component base="d"/>
  </outline>
</glyph>
<glyph name="uniA7CA" format="2">
  <advance width="367"/>
  <unicode hex="A7CA"/>
  <anchor x="171" y="0" name="bottom"/>
  <anchor x="190" y="547" name="top"/>
  <anchor x="332" y="547" name="topright"/>
  <outline>
    <contour>
      <point x="14" y="225" type="line"/>
      <point x="364" y="225" type="line"/>
      <point x="364" y="310" type="line"/>
      <point x="14" y="310" type="line"/>
    </contour>
    <component base="s"/>
  </outline>
</glyph>
<glyph name="uniA7FA" format="2">
  <advance width="715"/>
  <unicode hex="A7FA"/>
  <anchor x="358" y="0" name="bottom"/>
  <anchor x="358" y="547" name="top"/>
  <outline>
    <contour>
      <point x="662" y="0" type="line"/>
      <point x="662" y="547" type="line"/>
      <point x="531" y="547" type="line"/>
      <point x="531" y="110" type="line"/>
      <point x="422" y="110" type="line"/>
      <point x="422" y="547" type="line"/>
      <point x="291" y="547" type="line"/>
      <point x="291" y="110" type="line"/>
      <point x="184" y="110" type="line"/>
      <point x="184" y="547" type="line"/>
      <point x="53" y="547" type="line"/>
      <point x="53" y="0" type="line"/>
    </contour>
  </outline>
</glyph>
<glyph name="uniAB41" format="2">
  <advance width="722"/>
  <unicode hex="AB41"/>
  <anchor x="362" y="546" name="bottom"/>
  <anchor x="362" y="-1" name="top"/>
  <outline>
    <contour>
      <point x="371" y="-61" type="line"/>
      <point x="646" y="568" type="line"/>
      <point x="588" y="593" type="line"/>
      <point x="313" y="-36" type="line"/>
    </contour>
    <component base="oe" xScale="-1" yScale="-1" xOffset="722" yOffset="546"/>
  </outline>
</glyph>
<glyph name="uniAB42" format="2">
  <advance width="722"/>
  <unicode hex="AB42"/>
  <anchor x="362" y="546" name="bottom"/>
  <anchor x="362" y="-1" name="top"/>
  <outline>
    <contour>
      <point x="323" y="305" type="line"/>
      <point x="323" y="218" type="line"/>
      <point x="661" y="218" type="line"/>
      <point x="661" y="305" type="line"/>
    </contour>
    <component base="oe" xScale="-1" yScale="-1" xOffset="722" yOffset="546"/>
  </outline>
</glyph>
<glyph name="uniAB44" format="2">
  <advance width="837"/>
  <unicode hex="AB44"/>
  <outline>
    <contour>
      <point x="477" y="-61" type="line"/>
      <point x="752" y="568" type="line"/>
      <point x="694" y="593" type="line"/>
      <point x="419" y="-36" type="line"/>
    </contour>
    <component base="uniAB43"/>
  </outline>
</glyph>
<glyph name="uniAB60" format="2">
  <advance width="670"/>
  <unicode hex="AB60"/>
  <outline>
    <contour>
      <point x="282" y="0" type="line"/>
      <point x="456" y="0" type="line" smooth="yes"/>
      <point x="576" y="0"/>
      <point x="644" y="56"/>
      <point x="644" y="174" type="curve" smooth="yes"/>
      <point x="644" y="288"/>
      <point x="577" y="339"/>
      <point x="444" y="339" type="curve" smooth="yes"/>
      <point x="413" y="339" type="line"/>
      <point x="413" y="547" type="line"/>
      <point x="282" y="547" type="line"/>
    </contour>
    <contour>
      <point x="58" y="0" type="line"/>
      <point x="189" y="0" type="line"/>
      <point x="189" y="547" type="line"/>
      <point x="58" y="547" type="line"/>
    </contour>
    <contour>
      <point x="413" y="99" type="line"/>
      <point x="413" y="240" type="line"/>
      <point x="447" y="240" type="line"/>
      <point x="493" y="240"/>
      <point x="513" y="215"/>
      <point x="513" y="168" type="curve" smooth="yes"/>
      <point x="513" y="123"/>
      <point x="489" y="99"/>
      <point x="448" y="99" type="curve" smooth="yes"/>
    </contour>
  </outline>
</glyph>
<glyph name="uniAB65" format="2">
  <advance width="495"/>
  <unicode hex="AB65"/>
  <outline>
    <contour>
      <point x="248" y="446" type="curve" smooth="yes"/>
      <point x="298" y="446"/>
      <point x="319" y="387"/>
      <point x="319" y="291" type="curve" smooth="yes"/>
      <point x="319" y="177"/>
      <point x="304" y="114"/>
      <point x="270" y="95" type="curve"/>
      <point x="270" y="0" type="line"/>
      <point x="469" y="0" type="line"/>
      <point x="469" y="110" type="line"/>
      <point x="403" y="110" type="line"/>
      <point x="434" y="154"/>
      <point x="452" y="215"/>
      <point x="452" y="291" type="curve" smooth="yes"/>
      <point x="452" y="444"/>
      <point x="389" y="556"/>
      <point x="249" y="556" type="curve" smooth="yes"/>
      <point x="99" y="556"/>
      <point x="44" y="441"/>
      <point x="44" y="292" type="curve" smooth="yes"/>
      <point x="44" y="212"/>
      <point x="61" y="152"/>
      <point x="89" y="110" type="curve"/>
      <point x="26" y="110" type="line"/>
      <point x="26" y="0" type="line"/>
      <point x="225" y="0" type="line"/>
      <point x="225" y="95" type="line"/>
      <point x="191" y="114"/>
      <point x="176" y="177"/>
      <point x="176" y="292" type="curve" smooth="yes"/>
      <point x="176" y="388"/>
      <point x="197" y="446"/>
    </contour>
  </outline>
</glyph>
<glyph name="uniFE20" format="2">
  <unicode hex="FE20"/>
  <outline>
    <contour>
      <point x="-294" y="587" type="curve"/>
      <point x="-209" y="587" type="line"/>
      <point x="-169" y="661"/>
      <point x="-97" y="688"/>
      <point x="1" y="688" type="curve"/>
      <point x="5" y="688" type="line"/>
      <point x="5" y="783" type="line"/>
      <point x="1" y="783" type="line" smooth="yes"/>
      <point x="-139" y="783"/>
      <point x="-244" y="725"/>
    </contour>
  </outline>
</glyph>
<glyph name="uniFE21" format="2">
  <unicode hex="FE21"/>
  <outline>
    <contour>
      <point x="-1" y="783" type="curve"/>
      <point x="-5" y="783" type="line"/>
      <point x="-5" y="688" type="line"/>
      <point x="-1" y="688" type="line" smooth="yes"/>
      <point x="113" y="688"/>
      <point x="181" y="655"/>
      <point x="215" y="587" type="curve"/>
      <point x="299" y="587" type="line"/>
      <point x="265" y="717"/>
      <point x="167" y="783"/>
    </contour>
  </outline>
</glyph>
<glyph name="uniFE22" format="2">
  <unicode hex="FE22"/>
  <outline>
    <contour>
      <point x="-28" y="634" type="curve"/>
      <point x="-28" y="730" type="line"/>
      <point x="-79" y="745"/>
      <point x="-133" y="756"/>
      <point x="-196" y="756" type="curve"/>
      <point x="-270" y="756"/>
      <point x="-322" y="709"/>
      <point x="-328" y="607" type="curve"/>
      <point x="-261" y="607" type="line"/>
      <point x="-253" y="647"/>
      <point x="-228" y="661"/>
      <point x="-190" y="661" type="curve"/>
      <point x="-139" y="661"/>
      <point x="-89" y="650"/>
    </contour>
  </outline>
</glyph>
<glyph name="uniFE23" format="2">
  <unicode hex="FE23"/>
  <outline>
    <contour>
      <point x="0" y="730" type="curve"/>
      <point x="0" y="634" type="line"/>
      <point x="52" y="621"/>
      <point x="108" y="608"/>
      <point x="167" y="608" type="curve"/>
      <point x="235" y="608"/>
      <point x="293" y="655"/>
      <point x="300" y="757" type="curve"/>
      <point x="233" y="757" type="line"/>
      <point x="226" y="720"/>
      <point x="199" y="703"/>
      <point x="157" y="703" type="curve"/>
      <point x="111" y="703"/>
      <point x="59" y="715"/>
    </contour>
  </outline>
</glyph>
<glyph name="combiningconjoiningmacron" format="2">
  <unicode hex="FE26"/>
  <outline>
    <contour>
      <point x="-270" y="712" type="line"/>
      <point x="-270" y="616" type="line"/>
      <point x="270" y="616" type="line"/>
      <point x="270" y="712" type="line"/>
    </contour>
  </outline>
</glyph>
<glyph name="uniFE2E" format="2">
  <unicode hex="FE2E"/>
  <outline>
    <contour>
      <point x="-21" y="607" type="curve"/>
      <point x="137" y="607" type="line"/>
      <point x="137" y="700" type="line"/>
      <point x="-65" y="700" type="line" smooth="yes"/>
      <point x="-116" y="700"/>
      <point x="-137" y="674"/>
      <point x="-137" y="629" type="curve" smooth="yes"/>
      <point x="-137" y="594"/>
      <point x="-117" y="563"/>
      <point x="-79" y="563" type="curve" smooth="yes"/>
      <point x="-46" y="563"/>
      <point x="-25" y="575"/>
    </contour>
  </outline>
</glyph>
<glyph name="uniFE2F" format="2">
  <unicode hex="FE2F"/>
  <outline>
    <contour>
      <point x="-137" y="607" type="line"/>
      <point x="65" y="607" type="line" smooth="yes"/>
      <point x="124" y="607"/>
      <point x="137" y="640"/>
      <point x="137" y="678" type="curve" smooth="yes"/>
      <point x="137" y="720"/>
      <point x="118" y="743"/>
      <point x="79" y="743" type="curve" smooth="yes"/>
      <point x="47" y="743"/>
      <point x="24" y="728"/>
      <point x="21" y="700" type="curve"/>
      <point x="-137" y="700" type="line"/>
    </contour>
  </outline>
</glyph>
<glyph name="uni02E7_uni02E8_uni02E6" format="2">
  <advance width="526"/>
  <outline>
    <contour>
      <point x="386" y="0" type="line"/>
      <point x="450" y="0" type="line"/>
      <point x="450" y="688" type="line"/>
      <point x="386" y="688" type="line"/>
      <point x="386" y="570" type="line"/>
      <point x="216" y="261" type="line"/>
      <point x="86" y="390" type="line"/>
      <point x="41" y="344" type="line"/>
      <point x="231" y="155" type="line"/>
      <point x="386" y="437" type="line"/>
    </contour>
  </outline>
</glyph>
<glyph name="uni03D0.alt" format="2">
  <advance width="500"/>
  <anchor x="250" y="-10" name="bottom"/>
  <anchor x="250" y="765" name="top"/>
  <outline>
    <contour>
      <point x="252" y="765" type="curve" smooth="yes"/>
      <point x="128" y="765"/>
      <point x="53" y="685"/>
      <point x="53" y="545" type="curve" smooth="yes"/>
      <point x="53" y="219" type="line" smooth="yes"/>
      <point x="53" y="62"/>
      <point x="132" y="-10"/>
      <point x="258" y="-10" type="curve" smooth="yes"/>
      <point x="402" y="-10"/>
      <point x="468" y="87"/>
      <point x="468" y="211" type="curve" smooth="yes"/>
      <point x="468" y="322"/>
      <point x="420" y="382"/>
      <point x="337" y="398" type="curve"/>
      <point x="337" y="402" type="line"/>
      <point x="407" y="418"/>
      <point x="446" y="470"/>
      <point x="446" y="575" type="curve" smooth="yes"/>
      <point x="446" y="691"/>
      <point x="376" y="765"/>
    </contour>
    <contour>
      <point x="250" y="655" type="curve" smooth="yes"/>
      <point x="292" y="655"/>
      <point x="314" y="620"/>
      <point x="314" y="555" type="curve" smooth="yes"/>
      <point x="314" y="484"/>
      <point x="291" y="447"/>
      <point x="247" y="447" type="curve" smooth="yes"/>
      <point x="233" y="447" type="line"/>
      <point x="233" y="336" type="line"/>
      <point x="253" y="336" type="line" smooth="yes"/>
      <point x="306" y="336"/>
      <point x="335" y="295"/>
      <point x="335" y="223" type="curve" smooth="yes"/>
      <point x="335" y="140"/>
      <point x="307" y="104"/>
      <point x="258" y="104" type="curve" smooth="yes"/>
      <point x="212" y="104"/>
      <point x="184" y="141"/>
      <point x="184" y="224" type="curve" smooth="yes"/>
      <point x="184" y="535" type="line" smooth="yes"/>
      <point x="184" y="614"/>
      <point x="206" y="655"/>
    </contour>
  </outline>
</glyph>
<glyph name="uni1FCD02C9" format="2">
  <advance width="363"/>
  <anchor x="181" y="547" name="_top"/>
  <anchor x="183" y="876" name="top"/>
  <outline>
    <contour>
      <point x="273" y="867" type="curve"/>
      <point x="165" y="867" type="line"/>
      <point x="165" y="857" type="line"/>
      <point x="181" y="814"/>
      <point x="214" y="755"/>
      <point x="239" y="713" type="curve"/>
      <point x="303" y="713" type="line"/>
      <point x="303" y="725" type="line"/>
      <point x="293" y="760"/>
      <point x="281" y="818"/>
    </contour>
    <contour>
      <point x="311" y="677" type="line"/>
      <point x="51" y="677" type="line"/>
      <point x="51" y="600" type="line"/>
      <point x="311" y="600" type="line"/>
    </contour>
    <contour>
      <point x="105" y="876" type="curve" smooth="yes"/>
      <point x="78" y="876"/>
      <point x="61" y="858"/>
      <point x="61" y="831" type="curve" smooth="yes"/>
      <point x="61" y="803"/>
      <point x="71" y="786"/>
      <point x="100" y="785" type="curve"/>
      <point x="100" y="762"/>
      <point x="79" y="746"/>
      <point x="56" y="743" type="curve"/>
      <point x="56" y="705" type="line"/>
      <point x="123" y="708"/>
      <point x="161" y="757"/>
      <point x="161" y="805" type="curve" smooth="yes"/>
      <point x="161" y="848"/>
      <point x="140" y="876"/>
    </contour>
  </outline>
</glyph>
<glyph name="uni1FCD0306" format="2">
  <advance width="333"/>
  <anchor x="167" y="528" name="_top"/>
  <anchor x="169" y="895" name="top"/>
  <outline>
    <contour>
      <point x="170" y="578" type="curve" smooth="yes"/>
      <point x="254" y="578"/>
      <point x="295" y="629"/>
      <point x="301" y="707" type="curve"/>
      <point x="238" y="707" type="line"/>
      <point x="231" y="671"/>
      <point x="216" y="651"/>
      <point x="168" y="651" type="curve" smooth="yes"/>
      <point x="124" y="651"/>
      <point x="108" y="674"/>
      <point x="98" y="707" type="curve"/>
      <point x="32" y="707" type="line"/>
      <point x="39" y="628"/>
      <point x="78" y="578"/>
    </contour>
    <contour>
      <point x="43" y="766" type="curve"/>
      <point x="43" y="728" type="line"/>
      <point x="115" y="730"/>
      <point x="148" y="776"/>
      <point x="148" y="825" type="curve" smooth="yes"/>
      <point x="148" y="867"/>
      <point x="127" y="895"/>
      <point x="93" y="895" type="curve" smooth="yes"/>
      <point x="66" y="895"/>
      <point x="48" y="877"/>
      <point x="48" y="850" type="curve" smooth="yes"/>
      <point x="48" y="823"/>
      <point x="59" y="806"/>
      <point x="87" y="805" type="curve"/>
      <point x="87" y="781"/>
      <point x="67" y="769"/>
    </contour>
    <contour>
      <point x="228" y="732" type="curve"/>
      <point x="290" y="732" type="line"/>
      <point x="290" y="744" type="line"/>
      <point x="280" y="779"/>
      <point x="267" y="837"/>
      <point x="260" y="886" type="curve"/>
      <point x="152" y="886" type="line"/>
      <point x="152" y="876" type="line"/>
      <point x="167" y="833"/>
      <point x="202" y="773"/>
    </contour>
  </outline>
</glyph>
<glyph name="uni1FCE02C9" format="2">
  <advance width="361"/>
  <anchor x="179" y="547" name="_top"/>
  <anchor x="191" y="868" name="top"/>
  <outline>
    <contour>
      <point x="189" y="718" type="curve"/>
      <point x="189" y="706" type="line"/>
      <point x="252" y="706" type="line"/>
      <point x="277" y="746"/>
      <point x="311" y="807"/>
      <point x="327" y="849" type="curve"/>
      <point x="327" y="859" type="line"/>
      <point x="218" y="859" type="line"/>
      <point x="211" y="811"/>
      <point x="197" y="753"/>
    </contour>
    <contour>
      <point x="51" y="600" type="line"/>
      <point x="311" y="600" type="line"/>
      <point x="311" y="677" type="line"/>
      <point x="51" y="677" type="line"/>
    </contour>
    <contour>
      <point x="80" y="736" type="curve"/>
      <point x="80" y="697" type="line"/>
      <point x="145" y="698"/>
      <point x="185" y="749"/>
      <point x="185" y="797" type="curve" smooth="yes"/>
      <point x="185" y="840"/>
      <point x="164" y="868"/>
      <point x="130" y="868" type="curve" smooth="yes"/>
      <point x="102" y="868"/>
      <point x="85" y="850"/>
      <point x="85" y="824" type="curve" smooth="yes"/>
      <point x="85" y="796"/>
      <point x="96" y="779"/>
      <point x="123" y="778" type="curve"/>
      <point x="123" y="755"/>
      <point x="104" y="739"/>
    </contour>
  </outline>
</glyph>
<glyph name="uni1FCE0306" format="2">
  <advance width="335"/>
  <anchor x="173" y="528" name="_top"/>
  <anchor x="175" y="895" name="top"/>
  <outline>
    <contour>
      <point x="170" y="578" type="curve" smooth="yes"/>
      <point x="254" y="578"/>
      <point x="295" y="629"/>
      <point x="301" y="707" type="curve"/>
      <point x="238" y="707" type="line"/>
      <point x="231" y="671"/>
      <point x="216" y="651"/>
      <point x="168" y="651" type="curve" smooth="yes"/>
      <point x="124" y="651"/>
      <point x="106" y="667"/>
      <point x="98" y="707" type="curve"/>
      <point x="32" y="707" type="line"/>
      <point x="39" y="628"/>
      <point x="78" y="578"/>
    </contour>
    <contour>
      <point x="67" y="728" type="line"/>
      <point x="139" y="729"/>
      <point x="173" y="776"/>
      <point x="173" y="825" type="curve" smooth="yes"/>
      <point x="173" y="867"/>
      <point x="151" y="895"/>
      <point x="116" y="895" type="curve" smooth="yes"/>
      <point x="90" y="895"/>
      <point x="73" y="877"/>
      <point x="73" y="850" type="curve" smooth="yes"/>
      <point x="73" y="823"/>
      <point x="83" y="806"/>
      <point x="111" y="805" type="curve"/>
      <point x="111" y="781"/>
      <point x="90" y="769"/>
      <point x="67" y="766" type="curve"/>
    </contour>
    <contour>
      <point x="175" y="732" type="line"/>
      <point x="238" y="732" type="line"/>
      <point x="263" y="773"/>
      <point x="298" y="833"/>
      <point x="314" y="876" type="curve"/>
      <point x="314" y="886" type="line"/>
      <point x="205" y="886" type="line"/>
      <point x="199" y="837"/>
      <point x="186" y="779"/>
      <point x="175" y="744" type="curve"/>
    </contour>
  </outline>
</glyph>
<glyph name="uni1FDD02C9" format="2">
  <advance width="363"/>
  <anchor x="181" y="547" name="_top"/>
  <anchor x="183" y="876" name="top"/>
  <outline>
    <contour>
      <point x="277" y="867" type="curve"/>
      <point x="168" y="867" type="line"/>
      <point x="168" y="857" type="line"/>
      <point x="183" y="814"/>
      <point x="216" y="755"/>
      <point x="242" y="713" type="curve"/>
      <point x="305" y="713" type="line"/>
      <point x="305" y="725" type="line"/>
      <point x="297" y="760"/>
      <point x="284" y="818"/>
    </contour>
    <contour>
      <point x="311" y="677" type="line"/>
      <point x="51" y="677" type="line"/>
      <point x="51" y="600" type="line"/>
      <point x="311" y="600" type="line"/>
    </contour>
    <contour>
      <point x="107" y="876" type="curve" smooth="yes"/>
      <point x="77" y="876"/>
      <point x="55" y="848"/>
      <point x="55" y="810" type="curve" smooth="yes"/>
      <point x="55" y="756"/>
      <point x="97" y="708"/>
      <point x="160" y="708" type="curve"/>
      <point x="160" y="747" type="line"/>
      <point x="138" y="750"/>
      <point x="117" y="762"/>
      <point x="117" y="785" type="curve"/>
      <point x="140" y="786"/>
      <point x="155" y="803"/>
      <point x="155" y="831" type="curve" smooth="yes"/>
      <point x="155" y="853"/>
      <point x="138" y="876"/>
    </contour>
  </outline>
</glyph>
<glyph name="uni1FDD0306" format="2">
  <advance width="333"/>
  <anchor x="167" y="528" name="_top"/>
  <anchor x="169" y="895" name="top"/>
  <outline>
    <contour>
      <point x="170" y="578" type="curve" smooth="yes"/>
      <point x="254" y="578"/>
      <point x="295" y="629"/>
      <point x="301" y="707" type="curve"/>
      <point x="238" y="707" type="line"/>
      <point x="231" y="671"/>
      <point x="216" y="651"/>
      <point x="168" y="651" type="curve" smooth="yes"/>
      <point x="124" y="651"/>
      <point x="108" y="674"/>
      <point x="98" y="707" type="curve"/>
      <point x="32" y="707" type="line"/>
      <point x="39" y="628"/>
      <point x="78" y="578"/>
    </contour>
    <contour>
      <point x="146" y="728" type="curve"/>
      <point x="146" y="766" type="line"/>
      <point x="123" y="767"/>
      <point x="103" y="781"/>
      <point x="103" y="805" type="curve"/>
      <point x="131" y="806"/>
      <point x="142" y="823"/>
      <point x="142" y="850" type="curve" smooth="yes"/>
      <point x="142" y="877"/>
      <point x="125" y="895"/>
      <point x="98" y="895" type="curve" smooth="yes"/>
      <point x="62" y="895"/>
      <point x="42" y="867"/>
      <point x="42" y="825" type="curve" smooth="yes"/>
      <point x="42" y="776"/>
      <point x="82" y="728"/>
    </contour>
    <contour>
      <point x="224" y="732" type="curve"/>
      <point x="289" y="732" type="line"/>
      <point x="289" y="744" type="line"/>
      <point x="280" y="779"/>
      <point x="266" y="837"/>
      <point x="259" y="886" type="curve"/>
      <point x="151" y="886" type="line"/>
      <point x="151" y="876" type="line"/>
      <point x="166" y="833"/>
      <point x="200" y="774"/>
    </contour>
  </outline>
</glyph>
<glyph name="uni1FDE02C9" format="2">
  <advance width="346"/>
  <anchor x="177" y="547" name="_top"/>
  <anchor x="191" y="876" name="top"/>
  <outline>
    <contour>
      <point x="189" y="713" type="line"/>
      <point x="253" y="713" type="line"/>
      <point x="277" y="755"/>
      <point x="310" y="814"/>
      <point x="326" y="857" type="curve"/>
      <point x="326" y="867" type="line"/>
      <point x="217" y="867" type="line"/>
      <point x="209" y="818"/>
      <point x="196" y="760"/>
      <point x="189" y="725" type="curve"/>
    </contour>
    <contour>
      <point x="51" y="600" type="line"/>
      <point x="311" y="600" type="line"/>
      <point x="311" y="677" type="line"/>
      <point x="51" y="677" type="line"/>
    </contour>
    <contour>
      <point x="173" y="708" type="curve"/>
      <point x="173" y="747" type="line"/>
      <point x="149" y="750"/>
      <point x="129" y="762"/>
      <point x="129" y="785" type="curve"/>
      <point x="158" y="786"/>
      <point x="167" y="803"/>
      <point x="167" y="831" type="curve" smooth="yes"/>
      <point x="167" y="858"/>
      <point x="150" y="876"/>
      <point x="124" y="876" type="curve" smooth="yes"/>
      <point x="89" y="876"/>
      <point x="68" y="848"/>
      <point x="68" y="805" type="curve" smooth="yes"/>
      <point x="68" y="756"/>
      <point x="109" y="708"/>
    </contour>
  </outline>
</glyph>
<glyph name="uni1FDE0306" format="2">
  <advance width="335"/>
  <anchor x="172" y="528" name="_top"/>
  <anchor x="174" y="895" name="top"/>
  <outline>
    <contour>
      <point x="170" y="578" type="curve" smooth="yes"/>
      <point x="254" y="578"/>
      <point x="295" y="629"/>
      <point x="301" y="707" type="curve"/>
      <point x="237" y="707" type="line"/>
      <point x="230" y="671"/>
      <point x="216" y="651"/>
      <point x="168" y="651" type="curve" smooth="yes"/>
      <point x="124" y="651"/>
      <point x="105" y="674"/>
      <point x="99" y="707" type="curve"/>
      <point x="32" y="707" type="line"/>
      <point x="39" y="628"/>
      <point x="78" y="578"/>
    </contour>
    <contour>
      <point x="158" y="728" type="curve"/>
      <point x="158" y="766" type="line"/>
      <point x="135" y="767"/>
      <point x="115" y="781"/>
      <point x="115" y="805" type="curve"/>
      <point x="143" y="806"/>
      <point x="154" y="823"/>
      <point x="154" y="850" type="curve" smooth="yes"/>
      <point x="154" y="877"/>
      <point x="136" y="895"/>
      <point x="110" y="895" type="curve" smooth="yes"/>
      <point x="74" y="895"/>
      <point x="54" y="867"/>
      <point x="54" y="825" type="curve" smooth="yes"/>
      <point x="54" y="776"/>
      <point x="94" y="728"/>
    </contour>
    <contour>
      <point x="175" y="732" type="line"/>
      <point x="239" y="732" type="line"/>
      <point x="264" y="774"/>
      <point x="297" y="833"/>
      <point x="313" y="876" type="curve"/>
      <point x="313" y="886" type="line"/>
      <point x="205" y="886" type="line"/>
      <point x="197" y="837"/>
      <point x="183" y="779"/>
      <point x="175" y="744" type="curve"/>
    </contour>
  </outline>
</glyph>
